<?xml version="1.0" encoding="utf-8"?>
<!-- Generator: Adobe Illustrator 24.1.1, SVG Export Plug-In . SVG Version: 6.00 Build 0)  -->
<svg version="1.1" id="Camada_1" xmlns="http://www.w3.org/2000/svg" xmlns:xlink="http://www.w3.org/1999/xlink" x="0px" y="0px"
	 viewBox="0 0 500 500" style="enable-background:new 0 0 500 500;" xml:space="preserve">
<style type="text/css">
	.st0{opacity:0.7;fill:#FFFFFF;enable-background:new    ;}
	.st1{fill:#0F172A;}
	.st2{fill:#FFFFFF;}
	.st3{fill:#F2BE24;}
	.st4{fill:#D94C1A;}
</style>
<g id="freepik--background-simple--inject-4">
	<path class="st0" d="M471,238.3c-4.9,41.8-24,90.4-62.1,112.7c-57.6,33.7-52.8,85.6-165.2,108.2c-16.4,3.4-33.1,4.9-49.8,4.7
		c-8.2-0.1-16.4-0.8-24.5-2C98,451.5,49.9,401.8,32.2,341.9C9,263,55.3,211.4,86.1,180.3s53.2-128,163.6-151
		c16.8-3.6,34-5.2,51.2-4.9c39.3,1,82.1,13.8,111.7,40.8c2.2,2,4.4,4.1,6.5,6.3C460.2,113.7,477.7,181.3,471,238.3z"/>
</g>
<path class="st0" d="M27.1,282.4c-2.4,17.8-1.4,37.6,5.1,59.5c17.7,59.9,65.8,109.6,137.2,120c8.1,1.2,16.3,1.9,24.5,2
	c16.7,0.2,33.4-1.3,49.8-4.7c112.4-22.6,107.6-74.5,165.2-108.2c25-14.6,41.9-40.6,51.8-68.6H27.1z"/>
<g id="freepik--Table--inject-4">
	<path class="st1" d="M479,283.4h-15.2c-0.3,0-0.5-0.2-0.5-0.5s0.2-0.5,0.5-0.5H479c0.3,0,0.5,0.2,0.5,0.5
		C479.5,283.2,479.3,283.4,479,283.4z"/>
	<path class="st1" d="M457,283.4H22.6c-0.3,0-0.5-0.2-0.5-0.5s0.2-0.5,0.5-0.5H457c0.3,0,0.5,0.2,0.5,0.5
		C457.5,283.2,457.3,283.4,457,283.4z"/>
</g>
<g id="freepik--Gears--inject-4">
	<path class="st1" d="M410.4,196.7h-8.7l-1.1-7.6c-3.6-0.7-7-2.1-10-4.2l-6.1,4.6l-6.1-6.1l4.6-6.1c-2-3-3.4-6.4-4.1-10l-7.6-1.1
		v-8.7l7.6-1.1c0.7-3.6,2.1-7,4.2-10l-4.6-6.1l6.1-6.1l6.1,4.6c3-2,6.4-3.4,10-4.1l1.1-7.6h8.7l1.1,7.6c3.6,0.7,7,2.1,10,4.2
		l6.1-4.6l6.1,6.1l-4.6,6.1c2,3,3.4,6.4,4.1,10l7.6,1.1v8.7l-7.6,1.1c-0.7,3.6-2.1,7-4.2,10l4.6,6.1l-6.1,6.1l-6.1-4.6
		c-3,2-6.4,3.4-10,4.1L410.4,196.7z M402.5,195.7h7l1.1-7.4l0.4-0.1c3.7-0.7,7.2-2.1,10.3-4.2l0.3-0.2l6,4.5l4.9-4.9l-4.5-6l0.2-0.3
		c2.1-3.1,3.6-6.6,4.3-10.3l0.1-0.4l7.5-1.1v-7l-7.4-1.1l-0.1-0.4c-0.7-3.7-2.1-7.2-4.2-10.3l-0.2-0.3l4.5-6l-4.9-4.9l-6,4.5
		l-0.3-0.2c-3.1-2.1-6.6-3.6-10.3-4.3l-0.4-0.1l-1.1-7.4h-7l-1.1,7.4l-0.4,0.1c-3.7,0.7-7.2,2.1-10.3,4.2l-0.3,0.2l-6-4.5l-4.9,4.9
		l4.5,6l-0.2,0.3c-2.1,3.1-3.6,6.6-4.3,10.3l-0.1,0.4l-7.5,1.1v7l7.4,1.1l0.1,0.4c0.7,3.7,2.2,7.2,4.3,10.3l0.2,0.3l-4.5,6l4.9,4.9
		l6-4.5l0.3,0.2c3.1,2.1,6.6,3.6,10.3,4.3l0.4,0.1L402.5,195.7z M406.1,181.3c-10.8,0-19.5-8.7-19.5-19.5s8.7-19.5,19.5-19.5
		s19.5,8.7,19.5,19.5S416.9,181.3,406.1,181.3z M406.1,143.4c-10.2,0-18.5,8.3-18.5,18.5s8.3,18.5,18.5,18.5s18.5-8.3,18.5-18.5l0,0
		C424.6,151.6,416.3,143.4,406.1,143.4L406.1,143.4z"/>
	<path class="st1" d="M440.8,234.8h-6.5l-0.8-5.5c-2.5-0.5-4.9-1.5-7-2.9l-4.4,3.3l-4.6-4.6l3.3-4.4c-1.4-2.1-2.4-4.5-2.9-7
		l-5.4-0.8v-6.5l5.5-0.8c0.5-2.5,1.5-4.9,2.9-7l-3.3-4.4l4.6-4.6l4.4,3.3c2.1-1.4,4.5-2.4,7-2.9l0.8-5.4h6.5l0.8,5.5
		c2.5,0.5,4.9,1.5,7,2.9l4.4-3.3l4.6,4.6l-3.3,4.4c1.4,2.1,2.4,4.5,2.9,7l5.4,0.8v6.5l-5.5,0.8c-0.5,2.5-1.5,4.9-2.9,7l3.3,4.4
		l-4.5,4.6l-4.4-3.3c-2.1,1.4-4.5,2.4-7,2.9L440.8,234.8z M435.2,233.8h4.7l0.8-5.3l0.4-0.1c2.6-0.5,5.1-1.5,7.3-3l0.3-0.2l4.3,3.2
		l3.3-3.4l-3.2-4.3l0.2-0.3c1.5-2.2,2.6-4.7,3-7.3l0.1-0.4l5.3-0.8v-4.7l-5.3-0.8l-0.1-0.4c-0.5-2.6-1.5-5.1-3-7.3l-0.2-0.3l3.2-4.3
		L453,191l-4.3,3.2l-0.3-0.2c-2.2-1.5-4.7-2.6-7.3-3.1l-0.4-0.1l-0.8-5.3h-4.7l-0.8,5.3l-0.4,0.1c-2.6,0.5-5.1,1.5-7.3,3l-0.3,0.2
		l-4.3-3.1l-3.3,3.4l3.2,4.3l-0.2,0.3c-1.5,2.2-2.6,4.7-3,7.3l-0.1,0.4l-5.3,0.8v4.7l5.3,0.8l0.1,0.4c0.5,2.6,1.5,5.1,3,7.3l0.2,0.3
		l-3.2,4.3l3.3,3.4l4.3-3.2l0.3,0.2c2.2,1.5,4.7,2.5,7.3,3l0.4,0.1L435.2,233.8z M437.6,223.8c-7.8,0-14.1-6.3-14.1-14.1
		s6.3-14.1,14.1-14.1c7.8,0,14.1,6.3,14.1,14.1C451.6,217.5,445.4,223.7,437.6,223.8L437.6,223.8z M437.6,196.6
		c-7.2,0-13.1,5.9-13.1,13.1c0,7.2,5.9,13.1,13.1,13.1s13.1-5.9,13.1-13.1S444.8,196.6,437.6,196.6L437.6,196.6z"/>
	<path class="st1" d="M101.8,244.2h-8l-1-6.9c-3.3-0.7-6.3-1.9-9.1-3.8l-5.6,4.2l-5.7-5.6l4.2-5.6c-1.8-2.8-3.1-5.9-3.7-9.1l-6.9-1
		v-8l6.9-1c0.7-3.2,1.9-6.3,3.8-9.1l-4.2-5.6l5.7-5.7l5.6,4.2c2.8-1.8,5.9-3.1,9.2-3.8l1-6.9h8l1,6.9c3.2,0.7,6.3,1.9,9.1,3.8
		l5.6-4.2l5.7,5.7l-4.2,5.6c1.8,2.8,3.1,5.9,3.7,9.1l6.9,1v8l-7,1c-0.7,3.3-1.9,6.3-3.8,9.1l4.2,5.6l-5.7,5.7l-5.6-4.2
		c-2.8,1.8-5.9,3.1-9.1,3.7L101.8,244.2z M94.7,243.2h6.3l1-6.8l0.4-0.1c3.4-0.6,6.6-1.9,9.4-3.9l0.3-0.2l5.5,4.1l4.4-4.4l-4.1-5.5
		l0.2-0.3c2-2.8,3.3-6,3.9-9.4l0.1-0.4l6.8-1V209l-6.8-1l-0.1-0.4c-0.6-3.4-1.9-6.6-3.8-9.4l-0.2-0.3l4.1-5.5l-4.4-4.4l-5.5,4.1
		l-0.3-0.2c-2.8-1.9-6-3.3-9.3-3.9l-0.3-0.1l-1-6.8H95l-1,6.8l-0.3,0.1c-3.4,0.6-6.6,1.9-9.4,3.9l-0.3,0.2l-5.5-4.1l-4.4,4.4
		l4.1,5.5l-0.2,0.3c-2,2.8-3.3,6-3.9,9.4L74,208l-6.8,1v6.3l6.8,1l0.1,0.4c0.6,3.4,1.9,6.6,3.8,9.4l0.2,0.3l-4.1,5.5l4.4,4.4
		l5.5-4.1l0.3,0.2c2.8,1.9,6,3.3,9.4,3.9l0.3,0.1L94.7,243.2z M97.9,230.2c-9.8,0-17.8-8-17.8-17.8s8-17.8,17.8-17.8
		s17.8,8,17.8,17.8l0,0C115.7,222.2,107.7,230.1,97.9,230.2L97.9,230.2z M97.9,195.6c-9.3,0-16.8,7.5-16.8,16.8s7.5,16.8,16.8,16.8
		s16.8-7.5,16.8-16.8l0,0C114.7,203.1,107.2,195.5,97.9,195.6C97.9,195.5,97.9,195.5,97.9,195.6L97.9,195.6z"/>
	<path class="st1" d="M70.6,191.7h-5.2l-0.6-4.3c-1.9-0.4-3.7-1.2-5.4-2.2l-3.4,2.6l-3.7-3.7l2.6-3.4c-1.1-1.6-1.8-3.5-2.2-5.4
		l-4.3-0.6v-5.2l4.3-0.6c0.4-1.9,1.2-3.7,2.2-5.4l-2.6-3.4l3.7-3.7l3.5,2.6c1.6-1.1,3.5-1.8,5.4-2.2l0.6-4.3h5.2l0.6,4.3
		c1.9,0.4,3.7,1.2,5.4,2.2l3.4-2.6l3.7,3.7l-2.6,3.4c1.1,1.6,1.8,3.5,2.2,5.4l4.3,0.6v5.2l-4.3,0.6c-0.4,1.9-1.2,3.7-2.2,5.4
		l2.6,3.4l-3.6,3.7l-3.4-2.6c-1.6,1.1-3.5,1.8-5.4,2.2L70.6,191.7z M66.2,190.7h3.5l0.6-4.1l0.4-0.1c2-0.4,3.9-1.2,5.6-2.3l0.3-0.2
		l3.3,2.5l2.5-2.5l-2.5-3.3l0.2-0.3c1.2-1.7,2-3.6,2.3-5.6l0.1-0.4l4.1-0.6v-3.5l-4.1-0.6l-0.1-0.4c-0.4-2-1.2-4-2.3-5.6l-0.2-0.3
		l2.5-3.3l-2.5-2.5l-3.3,2.5l-0.3-0.2c-1.7-1.2-3.6-2-5.6-2.4l-0.3-0.1l-0.6-4.1h-3.5l-0.6,4.1l-0.4,0.1c-2,0.4-3.9,1.2-5.6,2.3
		l-0.3,0.2l-3.3-2.5l-2.5,2.5l2.5,3.3l-0.2,0.3c-1.2,1.7-2,3.6-2.3,5.6l-0.1,0.4l-4.1,0.6v3.5l4.1,0.6l0.1,0.4c0.4,2,1.2,4,2.3,5.6
		l0.2,0.3l-2.5,3.3l2.5,2.5l3.3-2.5l0.3,0.2c1.7,1.2,3.6,2,5.6,2.4l0.3,0.1L66.2,190.7z M68,183.1c-6.1,0-11.1-4.9-11.1-11
		s4.9-11.1,11-11.1S79,165.9,79,172l0,0C79,178.1,74.1,183,68,183.1z M68,162c-5.6,0-10.1,4.4-10.1,10s4.4,10.1,10,10.1
		s10.1-4.4,10.1-10V172C78,166.5,73.5,162,68,162z"/>
	<path class="st1" d="M246.3,120.1h-6.9l-0.8-5.8c-2.7-0.5-5.3-1.6-7.5-3.2l-4.7,3.5l-4.9-4.8l3.5-4.7c-1.5-2.3-2.6-4.9-3.1-7.5
		l-5.8-0.8v-6.9L222,89c0.5-2.7,1.6-5.3,3.1-7.5l-3.5-4.7l4.9-4.8l4.7,3.5c2.3-1.5,4.9-2.6,7.6-3.1l0.8-5.8h6.9l0.8,5.8
		c2.7,0.5,5.3,1.6,7.5,3.2l4.7-3.6l4.9,4.8l-3.5,4.7c1.5,2.3,2.6,4.9,3.1,7.6l5.8,0.8v6.8l-5.8,0.8c-0.5,2.7-1.6,5.2-3.1,7.5
		l3.5,4.7l-4.9,4.8l-4.7-3.5c-2.3,1.5-4.9,2.6-7.6,3.1L246.3,120.1z M240.3,119.1h5.1l0.8-5.7l0.4-0.1c2.8-0.5,5.5-1.6,7.8-3.2
		l0.3-0.2l4.6,3.4l3.7-3.6l-3.4-4.6l0.2-0.3c1.6-2.3,2.7-5,3.3-7.8l0.1-0.3l5.7-0.8v-5.1l-5.7-0.8l-0.1-0.3
		c-0.5-2.8-1.6-5.5-3.2-7.8l-0.2-0.3L263,77l-3.6-3.6l-4.6,3.4l-0.3-0.2c-2.3-1.6-5-2.7-7.8-3.3l-0.4-0.1l-0.8-5.7h-5.1l-0.8,5.7
		l-0.4,0.1c-2.8,0.5-5.5,1.6-7.8,3.2l-0.3,0.2l-4.6-3.4l-3.5,3.6l3.4,4.6l-0.2,0.3c-1.6,2.3-2.7,5-3.3,7.8l-0.1,0.3l-5.7,0.8v5.1
		l5.6,0.8l0.1,0.3c0.5,2.8,1.6,5.5,3.2,7.8l0.2,0.3l-3.4,4.6l3.6,3.6l4.6-3.4l0.3,0.2c2.3,1.6,5,2.7,7.8,3.3l0.4,0.1L240.3,119.1z
		 M243,108.3c-8.3,0-15-6.7-15-15s6.7-15,15-15s15,6.7,15,15l0,0C258,101.6,251.3,108.3,243,108.3z M243,79.3c-7.7,0-14,6.3-14,14
		s6.3,14,14,14s14-6.3,14-14S250.7,79.3,243,79.3L243,79.3L243,79.3z"/>
</g>
<g id="freepik--Device--inject-4">
	<path class="st1" d="M114.9,90H390c4.4,0,8,3.6,8,8v191.4l0,0H107l0,0V98C107,93.6,110.5,90,114.9,90z"/>
	<path class="st1" d="M398,289.9H107c-0.3,0-0.5-0.2-0.5-0.5V98c0-4.7,3.8-8.5,8.5-8.5l0,0h275c4.7,0,8.5,3.8,8.5,8.5v191.4
		C398.5,289.7,398.3,289.9,398,289.9z M107.5,288.9h290V98c0-4.1-3.3-7.5-7.5-7.5l0,0H114.9c-4.1,0-7.5,3.4-7.5,7.5l0,0L107.5,288.9
		z"/>
	<polygon class="st2" points="441.6,377.6 63.3,377.6 106.9,289.4 398,289.4 	"/>
	<path class="st1" d="M441.6,378.1H63.3c-0.2,0-0.3-0.1-0.4-0.2c-0.1-0.1-0.1-0.3,0-0.5l43.7-88.2c0.1-0.2,0.3-0.3,0.4-0.3h291
		c0.2,0,0.4,0.1,0.4,0.3l43.7,88.2c0.1,0.1,0.1,0.3,0,0.5C442,378,441.8,378.1,441.6,378.1z M64.1,377.1h376.7l-43.2-87.2H107.3
		L64.1,377.1z"/>
	<rect x="124.6" y="105.8" class="st3" width="255.8" height="167.8"/>
	<path class="st1" d="M380.4,274.1H124.6c-0.3,0-0.5-0.2-0.5-0.5V105.8c0-0.3,0.2-0.5,0.5-0.5h255.8c0.3,0,0.5,0.2,0.5,0.5v167.8
		C380.9,273.9,380.6,274.1,380.4,274.1z M125.1,273.1h254.8V106.3H125.1V273.1z"/>
	<polygon class="st1" points="240.3,317.3 240.8,306.6 225.4,306.6 224.4,317.3 	"/>
	<path class="st2" d="M240.3,317.8h-15.9c-0.1,0-0.3-0.1-0.4-0.2c-0.1-0.1-0.1-0.2-0.1-0.4l1-10.7c0-0.3,0.2-0.5,0.5-0.5h15.4
		c0.1,0,0.3,0.1,0.4,0.1c0.1,0.1,0.2,0.2,0.1,0.4l-0.5,10.7C240.8,317.6,240.6,317.8,240.3,317.8z M225,316.8h14.9l0.5-9.7H226
		L225,316.8z"/>
	<polygon class="st1" points="272.1,317.3 271.6,306.6 256.2,306.6 256.2,317.3 	"/>
	<path class="st2" d="M272.1,317.8h-15.9c-0.3,0-0.5-0.2-0.5-0.5v-10.7c0-0.3,0.2-0.5,0.5-0.5l0,0h15.4c0.3,0,0.5,0.2,0.5,0.5
		l0.5,10.7c0,0.1,0,0.3-0.1,0.4S272.2,317.8,272.1,317.8z M256.7,316.8h14.9l-0.5-9.7h-14.4V316.8z"/>
	<polygon class="st1" points="354.9,328.8 371.3,328.8 367.5,317.3 351.6,317.3 	"/>
	<path class="st2" d="M371.3,329.3h-16.4c-0.2,0-0.4-0.1-0.5-0.4l-3.3-11.5c0-0.2,0-0.3,0.1-0.4s0.2-0.2,0.4-0.2h15.9
		c0.2,0,0.4,0.1,0.5,0.3l3.9,11.5c0,0.2,0,0.3-0.1,0.5C371.6,329.2,371.5,329.3,371.3,329.3z M355.3,328.3h15.4l-3.5-10.5h-14.9
		L355.3,328.3z"/>
	<polygon class="st1" points="224.4,317.3 225.4,306.6 210.1,306.6 208.5,317.3 	"/>
	<path class="st2" d="M224.4,317.8h-15.9c-0.1,0-0.3-0.1-0.4-0.2c-0.1-0.1-0.1-0.3-0.1-0.4l1.5-10.7c0-0.2,0.2-0.4,0.5-0.4h15.4
		c0.1,0,0.3,0.1,0.4,0.2c0.1,0.1,0.1,0.2,0.1,0.4l-1,10.8C224.9,317.6,224.7,317.8,224.4,317.8z M209.1,316.8H224l0.9-9.7h-14.4
		L209.1,316.8z"/>
	<polygon class="st1" points="192.6,317.3 194.7,306.6 179.3,306.6 176.8,317.3 	"/>
	<path class="st2" d="M192.6,317.8h-15.9c-0.2,0-0.3-0.1-0.4-0.2c-0.1-0.1-0.1-0.3-0.1-0.4l2.6-10.7c0.1-0.2,0.3-0.4,0.5-0.4h15.4
		c0.1,0,0.3,0.1,0.4,0.2c0.1,0.1,0.1,0.3,0.1,0.4l-2.1,10.7C193.1,317.6,192.9,317.8,192.6,317.8z M177.4,316.8h14.9l1.9-9.7h-14.4
		L177.4,316.8z"/>
	<polygon class="st1" points="335.7,317.3 333.1,306.6 317.7,306.6 319.8,317.3 	"/>
	<path class="st2" d="M335.7,317.8h-15.9c-0.2,0-0.5-0.2-0.5-0.4l-2.1-10.7c-0.1-0.3,0.1-0.5,0.4-0.6h0.1h15.4
		c0.2,0,0.4,0.2,0.5,0.4l2.6,10.7c0,0.2,0,0.3-0.1,0.4C336,317.8,335.8,317.8,335.7,317.8z M320.2,316.8H335l-2.3-9.7h-14.4
		L320.2,316.8z"/>
	<polygon class="st1" points="351.6,317.3 348.5,306.6 333.1,306.6 335.7,317.3 	"/>
	<path class="st2" d="M351.6,317.8h-15.9c-0.2,0-0.4-0.2-0.5-0.4l-2.6-10.8c0-0.1,0-0.3,0.1-0.4s0.2-0.2,0.4-0.2h15.4
		c0.2,0,0.4,0.1,0.5,0.4l3,10.7c0,0.2,0,0.3-0.1,0.4C351.8,317.7,351.7,317.8,351.6,317.8z M336.1,316.8h14.8l-2.8-9.7h-14.4
		L336.1,316.8z"/>
	<polygon class="st1" points="176.8,317.3 179.3,306.6 163.9,306.6 160.9,317.3 	"/>
	<path class="st2" d="M176.8,317.8h-15.9c-0.2,0-0.3-0.1-0.4-0.2c-0.1-0.1-0.1-0.3-0.1-0.4l3.1-10.7c0.1-0.2,0.3-0.4,0.5-0.4h15.4
		c0.2,0,0.3,0.1,0.4,0.2c0.1,0.1,0.1,0.3,0.1,0.4l-2.6,10.7C177.2,317.7,177,317.8,176.8,317.8z M161.5,316.8h14.8l2.3-9.7h-14.4
		L161.5,316.8z"/>
	<polygon class="st1" points="288,317.3 287,306.6 271.6,306.6 272.1,317.3 	"/>
	<path class="st2" d="M288,317.8h-15.9c-0.3,0-0.5-0.2-0.5-0.5l-0.5-10.7c0-0.1,0-0.3,0.1-0.4s0.2-0.2,0.4-0.1H287
		c0.3,0,0.5,0.2,0.5,0.5l1,10.7C288.5,317.6,288.3,317.8,288,317.8L288,317.8z M272.6,316.8h14.9l-0.9-9.7h-14.4L272.6,316.8z"/>
	<polygon class="st1" points="367.5,317.3 363.8,306.6 348.5,306.6 351.6,317.3 	"/>
	<path class="st2" d="M367.5,317.8h-15.9c-0.2,0-0.4-0.1-0.5-0.4l-3.1-10.8c-0.1-0.3,0.1-0.5,0.4-0.6h0.1h15.4
		c0.2,0,0.4,0.1,0.5,0.3L368,317c0,0.2,0,0.3-0.1,0.5S367.6,317.8,367.5,317.8z M351.9,316.8h14.8l-3.3-9.7H349L351.9,316.8z"/>
	<polygon class="st1" points="319.8,317.3 317.7,306.6 302.3,306.6 303.9,317.3 	"/>
	<path class="st2" d="M319.8,317.8h-15.9c-0.2,0-0.5-0.2-0.5-0.4l-1.5-10.7c0-0.3,0.1-0.5,0.4-0.6h0.1h15.4c0.2,0,0.4,0.2,0.5,0.4
		l2.1,10.7C320.3,317.5,320.1,317.8,319.8,317.8L319.8,317.8L319.8,317.8z M304.3,316.8h14.9l-1.9-9.7h-14.4L304.3,316.8z"/>
	<polygon class="st1" points="303.9,317.3 302.3,306.6 287,306.6 288,317.3 	"/>
	<path class="st2" d="M303.9,317.8H288c-0.3,0-0.5-0.2-0.5-0.5l-1-10.8c0-0.1,0-0.3,0.1-0.4s0.2-0.2,0.4-0.2h15.4
		c0.2,0,0.5,0.2,0.5,0.4l1.5,10.8c0,0.1,0,0.3-0.1,0.4C304.2,317.8,304,317.8,303.9,317.8z M288.5,316.8h14.9l-1.4-9.7h-14.4
		L288.5,316.8z"/>
	<polygon class="st1" points="256.2,317.3 256.2,306.6 240.8,306.6 240.3,317.3 	"/>
	<path class="st2" d="M256.2,317.8h-15.9c-0.1,0-0.3-0.1-0.4-0.2c-0.1-0.1-0.1-0.2-0.1-0.4l0.5-10.7c0-0.3,0.2-0.5,0.5-0.5h15.4
		c0.3,0,0.5,0.2,0.5,0.5v10.7c0,0.1-0.1,0.3-0.1,0.4C256.5,317.8,256.3,317.8,256.2,317.8z M240.8,316.8h14.9v-9.7h-14.4
		L240.8,316.8z"/>
	<polygon class="st1" points="145,317.3 129.1,317.3 124.7,328.8 141.1,328.8 	"/>
	<path class="st2" d="M141.1,329.3h-16.4c-0.2,0-0.3-0.1-0.4-0.2s-0.1-0.3-0.1-0.5l4.4-11.5c0.1-0.2,0.3-0.3,0.5-0.3H145
		c0.2,0,0.3,0.1,0.4,0.2c0.1,0.1,0.1,0.3,0.1,0.5l-3.9,11.5C141.5,329.2,141.3,329.3,141.1,329.3z M125.4,328.3h15.3l3.5-10.5h-14.9
		L125.4,328.3z"/>
	<polygon class="st1" points="148.6,306.6 133.2,306.6 129.1,317.3 145,317.3 	"/>
	<path class="st2" d="M145,317.8h-15.9c-0.2,0-0.3-0.1-0.4-0.2c-0.1-0.1-0.1-0.3-0.1-0.5l4.1-10.7c0.1-0.2,0.3-0.3,0.5-0.3h15.4
		c0.3,0,0.5,0.2,0.5,0.5c0,0.1,0,0.1,0,0.2l-3.6,10.8C145.4,317.7,145.2,317.8,145,317.8z M129.8,316.8h14.8l3.3-9.7h-14.4
		L129.8,316.8z"/>
	<polygon class="st1" points="160.9,317.3 163.9,306.6 148.6,306.6 145,317.3 	"/>
	<path class="st2" d="M160.9,317.8H145c-0.3,0-0.5-0.2-0.5-0.5c0-0.1,0-0.1,0-0.2l3.6-10.7c0.1-0.2,0.3-0.3,0.5-0.3H164
		c0.2,0,0.3,0.1,0.4,0.2c0.1,0.1,0.1,0.3,0.1,0.4l-3.1,10.8C161.3,317.7,161.1,317.8,160.9,317.8z M145.7,316.8h14.8l2.8-9.7h-14.4
		L145.7,316.8z"/>
	<polygon class="st1" points="120,341.1 114.9,354.3 132.6,354.3 137,341.1 	"/>
	<path class="st2" d="M132.6,354.8h-17.7c-0.2,0-0.3-0.1-0.4-0.2s-0.1-0.3-0.1-0.5l5.1-13.2c0.1-0.2,0.3-0.3,0.5-0.3h17
		c0.2,0,0.3,0.1,0.4,0.2c0.1,0.1,0.1,0.3,0.1,0.5l-4.4,13.2C133,354.7,132.8,354.8,132.6,354.8z M115.6,353.8h16.6l4.1-12.2h-16
		L115.6,353.8z"/>
	<polygon class="st1" points="141.1,328.8 124.7,328.8 120,341.1 137,341.1 	"/>
	<path class="st2" d="M137,341.6h-17c-0.3,0-0.5-0.2-0.5-0.5c0-0.1,0-0.1,0-0.2l4.7-12.3c0.1-0.2,0.3-0.3,0.5-0.3h16.4
		c0.2,0,0.3,0.1,0.4,0.2c0.1,0.1,0.1,0.3,0.1,0.5l-4.1,12.3C137.4,341.5,137.2,341.6,137,341.6z M120.7,340.6h16l3.8-11.3H125
		L120.7,340.6z"/>
	<polygon class="st1" points="137,341.1 132.6,354.3 150.3,354.3 154,341.1 	"/>
	<path class="st2" d="M150.3,354.8h-17.7c-0.3,0-0.5-0.2-0.5-0.5c0-0.1,0-0.1,0-0.2l4.4-13.2c0.1-0.2,0.3-0.3,0.5-0.3h17
		c0.2,0,0.3,0.1,0.4,0.2c0.1,0.1,0.1,0.3,0.1,0.4l-3.8,13.2C150.6,354.7,150.5,354.8,150.3,354.8z M133.3,353.8h16.6l3.5-12.2h-16
		L133.3,353.8z"/>
	<polygon class="st1" points="208.5,317.3 210.1,306.6 194.7,306.6 192.6,317.3 	"/>
	<path class="st2" d="M208.5,317.8h-15.9c-0.1,0-0.3-0.1-0.4-0.2c-0.1-0.1-0.1-0.3-0.1-0.4l2-10.7c0.1-0.2,0.3-0.4,0.5-0.4H210
		c0.3,0,0.5,0.2,0.5,0.5v0.1l-1.5,10.7C209,317.6,208.8,317.8,208.5,317.8z M193.2,316.8h14.9l1.4-9.7h-14.4L193.2,316.8z"/>
	<polygon class="st1" points="206.9,328.8 208.5,317.3 192.6,317.3 190.4,328.8 	"/>
	<path class="st2" d="M206.9,329.3h-16.4c-0.3,0-0.5-0.2-0.5-0.5v-0.1l2.2-11.5c0-0.2,0.3-0.4,0.5-0.4h15.9c0.1,0,0.3,0.1,0.4,0.2
		c0.1,0.1,0.1,0.3,0.1,0.4l-1.6,11.5C207.4,329.1,207.1,329.3,206.9,329.3z M191.1,328.3h15.4l1.5-10.5h-14.9L191.1,328.3z"/>
	<polygon class="st1" points="190.4,328.8 192.6,317.3 176.8,317.3 174,328.8 	"/>
	<path class="st2" d="M190.4,329.3H174c-0.2,0-0.3-0.1-0.4-0.2c-0.1-0.1-0.1-0.3-0.1-0.4l2.7-11.5c0.1-0.2,0.3-0.4,0.5-0.4h15.9
		c0.1,0,0.3,0.1,0.4,0.2c0.1,0.1,0.1,0.3,0.1,0.4l-2.2,11.5C190.9,329.1,190.7,329.3,190.4,329.3z M174.6,328.3H190l2-10.5h-14.9
		L174.6,328.3z"/>
	<polygon class="st1" points="223.3,328.8 224.4,317.3 208.5,317.3 206.9,328.8 	"/>
	<path class="st2" d="M223.3,329.3h-16.4c-0.3,0-0.5-0.2-0.5-0.5v-0.1l1.6-11.5c0-0.2,0.2-0.4,0.5-0.4h15.9c0.1,0,0.3,0.1,0.4,0.2
		c0.1,0.1,0.1,0.2,0.1,0.4l-1.1,11.5C223.8,329.1,223.6,329.3,223.3,329.3z M207.5,328.3h15.4l1-10.5H209L207.5,328.3z"/>
	<polygon class="st1" points="160.9,317.3 145,317.3 141.1,328.8 157.6,328.8 	"/>
	<path class="st2" d="M157.6,329.3h-16.5c-0.2,0-0.3-0.1-0.4-0.2c-0.1-0.1-0.1-0.3-0.1-0.5l3.8-11.5c0.1-0.2,0.3-0.3,0.5-0.3h15.9
		c0.2,0,0.3,0.1,0.4,0.2c0.1,0.1,0.1,0.3,0.1,0.4l-3.3,11.5C158,329.2,157.8,329.3,157.6,329.3z M141.8,328.3h15.4l3-10.5h-14.9
		L141.8,328.3z"/>
	<polygon class="st1" points="358.4,341.1 375.5,341.1 371.3,328.8 354.9,328.8 	"/>
	<path class="st2" d="M375.5,341.6h-17c-0.2,0-0.4-0.1-0.5-0.4l-3.5-12.3c0-0.2,0-0.3,0.1-0.4s0.2-0.2,0.4-0.2h16.4
		c0.2,0,0.4,0.1,0.5,0.3L376,341c0.1,0.2,0,0.3-0.1,0.5C375.8,341.6,375.6,341.6,375.5,341.6z M358.8,340.6h16l-3.8-11.3h-15.5
		L358.8,340.6z"/>
	<polygon class="st1" points="174,328.8 176.8,317.3 160.9,317.3 157.6,328.8 	"/>
	<path class="st2" d="M174,329.3h-16.4c-0.2,0-0.3-0.1-0.4-0.2c-0.1-0.1-0.1-0.3-0.1-0.4l3.3-11.5c0.1-0.2,0.3-0.4,0.5-0.4h15.9
		c0.2,0,0.3,0.1,0.4,0.2c0.1,0.1,0.1,0.3,0.1,0.4l-2.7,11.5C174.4,329.1,174.2,329.3,174,329.3z M158.2,328.3h15.4l2.5-10.5h-14.9
		L158.2,328.3z"/>
	<polygon class="st1" points="141.1,328.8 137,341.1 154,341.1 157.6,328.8 	"/>
	<path class="st2" d="M154,341.6h-17c-0.2,0-0.3-0.1-0.4-0.2c-0.1-0.1-0.1-0.3-0.1-0.5l4.1-12.3c0.1-0.2,0.3-0.3,0.5-0.4h16.4
		c0.3,0,0.5,0.2,0.5,0.5v0.1l-3.5,12.3C154.4,341.5,154.2,341.6,154,341.6z M137.7,340.6h16l3.2-11.3h-15.4L137.7,340.6z"/>
	<polygon class="st1" points="322,328.8 319.8,317.3 303.9,317.3 305.5,328.8 	"/>
	<path class="st2" d="M322,329.3h-16.5c-0.2,0-0.5-0.2-0.5-0.4l-1.7-11.5c0-0.1,0-0.3,0.1-0.4s0.2-0.2,0.4-0.2h15.9
		c0.2,0,0.4,0.2,0.5,0.4l2.2,11.5C322.5,329,322.3,329.2,322,329.3L322,329.3L322,329.3z M306,328.3h15.4l-2-10.5h-14.9L306,328.3z"
		/>
	<polygon class="st1" points="305.5,328.8 303.9,317.3 288,317.3 289.1,328.8 	"/>
	<path class="st2" d="M305.5,329.3h-16.4c-0.3,0-0.5-0.2-0.5-0.5l-1.1-11.5c0-0.1,0-0.3,0.1-0.4s0.2-0.2,0.4-0.2h15.9
		c0.2,0,0.5,0.2,0.5,0.4l1.6,11.5C306,329,305.8,329.3,305.5,329.3C305.6,329.3,305.5,329.3,305.5,329.3L305.5,329.3z M289.5,328.3
		H305l-1.5-10.5h-14.9L289.5,328.3z"/>
	<polygon class="st1" points="354.9,328.8 351.6,317.3 335.7,317.3 338.4,328.8 	"/>
	<path class="st2" d="M354.9,329.3h-16.4c-0.2,0-0.4-0.2-0.5-0.4l-2.8-11.5c0-0.2,0-0.3,0.1-0.4s0.2-0.2,0.4-0.2h15.9
		c0.2,0,0.4,0.1,0.5,0.4l3.3,11.5c0,0.1,0,0.3-0.1,0.4C355.2,329.2,355,329.3,354.9,329.3z M338.8,328.3h15.4l-3-10.5h-14.9
		L338.8,328.3z"/>
	<polygon class="st1" points="256.2,328.8 256.2,317.3 240.3,317.3 239.8,328.8 	"/>
	<path class="st2" d="M256.2,329.3h-16.4c-0.1,0-0.3-0.1-0.4-0.1c-0.1-0.1-0.1-0.2-0.1-0.4l0.5-11.5c0-0.3,0.2-0.5,0.5-0.5h15.9
		c0.3,0,0.5,0.2,0.5,0.5v11.5c0,0.1-0.1,0.3-0.1,0.4C256.5,329.2,256.3,329.3,256.2,329.3z M240.3,328.3h15.4v-10.5h-14.9
		L240.3,328.3z"/>
	<polygon class="st1" points="289.1,328.8 288,317.3 272.1,317.3 272.7,328.8 	"/>
	<path class="st2" d="M289.1,329.3h-16.4c-0.3,0-0.5-0.2-0.5-0.5l-0.6-11.5c0-0.1,0-0.3,0.1-0.4s0.2-0.2,0.4-0.1H288
		c0.3,0,0.5,0.2,0.5,0.5l1.1,11.5c0,0.1,0,0.3-0.1,0.4C289.4,329.2,289.2,329.3,289.1,329.3z M273.1,328.3h15.4l-1-10.5h-14.9
		L273.1,328.3z"/>
	<polygon class="st1" points="272.7,328.8 272.1,317.3 256.2,317.3 256.2,328.8 	"/>
	<path class="st2" d="M272.7,329.3h-16.4c-0.3,0-0.5-0.2-0.5-0.5v-11.5c0-0.1,0.1-0.3,0.1-0.4c0.1-0.1,0.2-0.1,0.4-0.1h15.9
		c0.3,0,0.5,0.2,0.5,0.5l0.6,11.5c0,0.1,0,0.3-0.1,0.4C272.9,329.2,272.8,329.3,272.7,329.3z M256.7,328.3h15.4l-0.5-10.5h-14.9
		V328.3z"/>
	<polygon class="st1" points="239.8,328.8 240.3,317.3 224.4,317.3 223.3,328.8 	"/>
	<path class="st2" d="M239.8,329.3h-16.4c-0.1,0-0.3-0.1-0.4-0.2c-0.1-0.1-0.1-0.2-0.1-0.4l1.1-11.5c0-0.3,0.2-0.5,0.5-0.5h15.9
		c0.3,0,0.5,0.2,0.5,0.5c0,0,0,0,0,0.1l-0.5,11.5C240.3,329.1,240,329.3,239.8,329.3z M223.9,328.3h15.4l0.5-10.5h-14.9L223.9,328.3
		z"/>
	<polygon class="st1" points="289.1,328.8 290.3,341.1 307.3,341.1 305.5,328.8 	"/>
	<path class="st2" d="M307.3,341.6h-17c-0.3,0-0.5-0.2-0.5-0.5l-1.2-12.3c0-0.1,0-0.3,0.1-0.4s0.2-0.2,0.4-0.2h16.4
		c0.2,0,0.5,0.2,0.5,0.4l1.8,12.3c0,0.1,0,0.3-0.1,0.4C307.6,341.5,307.5,341.6,307.3,341.6z M290.8,340.6h16l-1.6-11.3h-15.5
		L290.8,340.6z"/>
	<polygon class="st1" points="305.5,328.8 307.3,341.1 324.4,341.1 322,328.8 	"/>
	<path class="st2" d="M324.4,341.6h-17c-0.2,0-0.5-0.2-0.5-0.4l-1.8-12.3c0-0.1,0-0.3,0.1-0.4s0.2-0.2,0.4-0.2H322
		c0.2,0,0.4,0.2,0.5,0.4l2.4,12.3c0,0.1,0,0.3-0.1,0.4C324.6,341.5,324.5,341.6,324.4,341.6z M307.8,340.6h16l-2.2-11.3h-15.5
		L307.8,340.6z"/>
	<polygon class="st1" points="157.6,328.8 154,341.1 171.1,341.1 174,328.8 	"/>
	<path class="st2" d="M171.1,341.6H154c-0.2,0-0.3-0.1-0.4-0.2c-0.1-0.1-0.1-0.3-0.1-0.4l3.5-12.3c0.1-0.2,0.3-0.4,0.5-0.4H174
		c0.3,0,0.5,0.2,0.5,0.5v0.1l-2.9,12.3C171.5,341.5,171.3,341.6,171.1,341.6z M154.7,340.6h16l2.7-11.3h-15.5L154.7,340.6z"/>
	<polygon class="st1" points="322,328.8 324.4,341.1 341.4,341.1 338.4,328.8 	"/>
	<path class="st2" d="M341.4,341.6h-17c-0.2,0-0.4-0.2-0.5-0.4l-2.4-12.3c0-0.1,0-0.3,0.1-0.4s0.2-0.2,0.4-0.2h16.4
		c0.2,0,0.4,0.2,0.5,0.4l3,12.3c0,0.1,0,0.3-0.1,0.4C341.7,341.5,341.6,341.6,341.4,341.6z M324.8,340.6h16l-2.8-11.3h-15.4
		L324.8,340.6z"/>
	<polygon class="st1" points="256.2,328.8 256.2,341.1 273.3,341.1 272.7,328.8 	"/>
	<path class="st2" d="M273.3,341.6h-17c-0.3,0-0.5-0.2-0.5-0.5v-12.3c0-0.1,0-0.3,0.1-0.4s0.2-0.1,0.4-0.1h16.4
		c0.3,0,0.5,0.2,0.5,0.5l0.6,12.3c0,0.1,0,0.3-0.1,0.4C273.6,341.6,273.4,341.6,273.3,341.6z M256.7,340.6h16l-0.6-11.3h-15.5
		L256.7,340.6z"/>
	<polygon class="st1" points="338.4,328.8 341.4,341.1 358.4,341.1 354.9,328.8 	"/>
	<path class="st2" d="M358.4,341.6h-17c-0.2,0-0.4-0.2-0.5-0.4l-3-12.3c0-0.2,0-0.3,0.1-0.4s0.2-0.2,0.4-0.2h16.4
		c0.2,0,0.4,0.2,0.5,0.4l3.6,12.3c0,0.2,0,0.3-0.1,0.4C358.7,341.6,358.6,341.6,358.4,341.6z M341.8,340.6h16l-3.3-11.3H339
		L341.8,340.6z"/>
	<polygon class="st1" points="272.7,328.8 273.3,341.1 290.3,341.1 289.1,328.8 	"/>
	<path class="st2" d="M290.3,341.6h-17c-0.3,0-0.5-0.2-0.5-0.5l-0.6-12.3c0-0.1,0-0.3,0.1-0.4s0.2-0.2,0.4-0.2h16.4
		c0.3,0,0.5,0.2,0.5,0.5l1.2,12.3c0,0.1,0,0.3-0.1,0.4C290.6,341.6,290.4,341.6,290.3,341.6z M273.7,340.6h16l-1.1-11.3h-15.5
		L273.7,340.6z"/>
	<polygon class="st1" points="190.4,328.8 188.1,341.1 205.1,341.1 206.9,328.8 	"/>
	<path class="st2" d="M205.1,341.6h-17c-0.1,0-0.3-0.1-0.4-0.2c-0.1-0.1-0.1-0.3-0.1-0.4l2.4-12.3c0-0.2,0.2-0.4,0.5-0.4h16.4
		c0.3,0,0.5,0.2,0.5,0.5c0,0,0,0,0,0.1l-1.8,12.3C205.6,341.4,205.4,341.6,205.1,341.6z M188.7,340.6h16l1.6-11.3h-15.5L188.7,340.6
		z"/>
	<polygon class="st1" points="174,328.8 171.1,341.1 188.1,341.1 190.4,328.8 	"/>
	<path class="st2" d="M188.1,341.6h-17c-0.2,0-0.3-0.1-0.4-0.2c-0.1-0.1-0.1-0.3-0.1-0.4l2.9-12.3c0.1-0.2,0.3-0.4,0.5-0.4h16.4
		c0.1,0,0.3,0.1,0.4,0.2c0.1,0.1,0.1,0.3,0.1,0.4l-2.3,12.3C188.6,341.5,188.4,341.6,188.1,341.6z M171.7,340.6h16l2.1-11.3h-15.5
		L171.7,340.6z"/>
	<polygon class="st1" points="239.8,328.8 239.2,341.1 256.2,341.1 256.2,328.8 	"/>
	<path class="st2" d="M256.2,341.6h-17c-0.1,0-0.3-0.1-0.4-0.1c-0.1-0.1-0.2-0.2-0.1-0.4l0.6-12.3c0-0.3,0.2-0.5,0.5-0.5h16.4
		c0.3,0,0.5,0.2,0.5,0.5v12.3c0,0.1-0.1,0.3-0.1,0.4C256.5,341.6,256.4,341.6,256.2,341.6z M239.7,340.6h16v-11.3h-15.5L239.7,340.6
		z"/>
	<polygon class="st1" points="223.3,328.8 222.2,341.1 239.2,341.1 239.8,328.8 	"/>
	<path class="st2" d="M239.2,341.6h-17c-0.1,0-0.3-0.1-0.4-0.2c-0.1-0.1-0.1-0.2-0.1-0.4l1.2-12.3c0-0.3,0.2-0.5,0.5-0.5h16.4
		c0.1,0,0.3,0.1,0.4,0.2c0.1,0.1,0.1,0.2,0.1,0.4l-0.6,12.3C239.7,341.4,239.5,341.6,239.2,341.6z M222.7,340.6h16l0.5-11.3h-15.5
		L222.7,340.6z"/>
	<polygon class="st1" points="206.9,328.8 205.1,341.1 222.2,341.1 223.3,328.8 	"/>
	<path class="st2" d="M222.2,341.6h-17c-0.3,0-0.5-0.2-0.5-0.5V341l1.8-12.3c0-0.2,0.2-0.4,0.5-0.4h16.4c0.1,0,0.3,0.1,0.4,0.2
		c0.1,0.1,0.1,0.2,0.1,0.4l-1.2,12.3C222.7,341.4,222.4,341.6,222.2,341.6z M205.7,340.6h16l1.1-11.3h-15.4L205.7,340.6z"/>
	<polygon class="st1" points="338.4,328.8 335.7,317.3 319.8,317.3 322,328.8 	"/>
	<path class="st2" d="M338.4,329.3H322c-0.2,0-0.4-0.2-0.5-0.4l-2.2-11.5c0-0.1,0-0.3,0.1-0.4s0.2-0.2,0.4-0.2h15.9
		c0.2,0,0.4,0.2,0.5,0.4l2.8,11.5c0,0.1,0,0.3-0.1,0.4C338.7,329.2,338.6,329.3,338.4,329.3z M322.4,328.3h15.4l-2.5-10.5h-14.9
		L322.4,328.3z"/>
	<polygon class="st1" points="148.6,306.6 152.2,295.6 137.4,295.6 133.2,306.6 	"/>
	<path class="st2" d="M148.6,307.1h-15.4c-0.3,0-0.5-0.2-0.5-0.5c0-0.1,0-0.1,0-0.2l4.2-11c0.1-0.2,0.3-0.3,0.5-0.3h14.9
		c0.3,0,0.5,0.2,0.5,0.5c0,0.1,0,0.1,0,0.2l-3.7,11C149,306.9,148.8,307.1,148.6,307.1z M133.9,306.1h14.3l3.3-10h-13.8L133.9,306.1
		z"/>
	<polygon class="st1" points="133.2,306.6 119,306.6 114.4,317.3 129.1,317.3 	"/>
	<path class="st2" d="M129.1,317.8h-14.7c-0.2,0-0.3-0.1-0.4-0.2s-0.1-0.3,0-0.5l4.6-10.7c0.1-0.2,0.3-0.3,0.5-0.3h14.2
		c0.2,0,0.3,0.1,0.4,0.2c0.1,0.1,0.1,0.3,0,0.5l-4.1,10.8C129.5,317.7,129.3,317.8,129.1,317.8z M115.2,316.8h13.6l3.7-9.7h-13.1
		L115.2,316.8z"/>
	<polygon class="st1" points="137.4,295.6 123.7,295.6 119,306.6 133.2,306.6 	"/>
	<path class="st2" d="M133.2,307.1H119c-0.2,0-0.3-0.1-0.4-0.2s-0.1-0.3,0-0.5l4.7-11c0.1-0.2,0.3-0.3,0.5-0.3h13.7
		c0.2,0,0.3,0.1,0.4,0.2c0.1,0.1,0.1,0.3,0.1,0.5l-4.2,11C133.6,307,133.4,307.1,133.2,307.1z M119.7,306.1h13.1l3.8-10H124
		L119.7,306.1z"/>
	<polygon class="st1" points="129.1,317.3 114.4,317.3 109.5,328.8 124.7,328.8 	"/>
	<path class="st2" d="M124.7,329.3h-15.2c-0.3,0-0.5-0.2-0.5-0.5c0-0.1,0-0.1,0-0.2l4.9-11.5c0.1-0.2,0.3-0.3,0.5-0.3h14.7
		c0.2,0,0.3,0.1,0.4,0.2c0.1,0.1,0.1,0.3,0.1,0.5l-4.4,11.5C125.1,329.2,124.9,329.3,124.7,329.3z M110.3,328.3h14.1l4-10.5h-13.6
		L110.3,328.3z"/>
	<polygon class="st1" points="124.7,328.8 109.5,328.8 104.3,341.1 120,341.1 	"/>
	<path class="st2" d="M120,341.6h-15.7c-0.3,0-0.5-0.2-0.5-0.5c0-0.1,0-0.1,0-0.2l5.2-12.3c0.1-0.2,0.3-0.3,0.5-0.3h15.2
		c0.3,0,0.5,0.2,0.5,0.5c0,0.1,0,0.1,0,0.2l-4.7,12.3C120.3,341.5,120.2,341.6,120,341.6z M105,340.6h14.6l4.4-11.3h-14.2L105,340.6
		z"/>
	<polygon class="st1" points="120,341.1 104.3,341.1 98.6,354.3 114.9,354.3 	"/>
	<path class="st2" d="M114.9,354.8H98.6c-0.2,0-0.3-0.1-0.4-0.2s-0.1-0.3,0-0.5l5.6-13.2c0.1-0.2,0.3-0.3,0.5-0.3H120
		c0.2,0,0.3,0.1,0.4,0.2s0.1,0.3,0.1,0.5l-5.1,13.2C115.3,354.7,115.1,354.8,114.9,354.8z M99.4,353.8h15.2l4.7-12.2h-14.7
		L99.4,353.8z"/>
	<polygon class="st1" points="383.4,317.3 387.8,328.8 402.3,328.8 397.4,317.3 	"/>
	<path class="st2" d="M402.3,329.3h-14.5c-0.2,0-0.4-0.1-0.5-0.3l-4.4-11.5c-0.1-0.2,0-0.3,0-0.5c0.1-0.1,0.2-0.2,0.4-0.2h14.1
		c0.2,0,0.4,0.1,0.5,0.3l4.9,11.5c0.1,0.1,0.1,0.3,0,0.5C402.7,329.2,402.5,329.3,402.3,329.3z M388.1,328.3h13.4l-4.5-10.5h-13
		L388.1,328.3z"/>
	<polygon class="st1" points="392.5,341.1 407.5,341.1 402.3,328.8 387.8,328.8 	"/>
	<path class="st2" d="M407.5,341.6h-15.1c-0.2,0-0.4-0.1-0.5-0.3l-4.7-12.3c-0.1-0.3,0-0.5,0.3-0.6c0.1,0,0.1,0,0.2,0h14.5
		c0.2,0,0.4,0.1,0.5,0.3l5.2,12.3c0.1,0.3,0,0.5-0.3,0.7C407.7,341.6,407.6,341.6,407.5,341.6L407.5,341.6z M392.8,340.6h14
		l-4.8-11.3h-13.5L392.8,340.6z"/>
	<polygon class="st1" points="397.6,354.3 413.2,354.3 407.5,341.1 392.5,341.1 	"/>
	<path class="st2" d="M413.2,354.8h-15.6c-0.2,0-0.4-0.1-0.5-0.3l-5.1-13.2c-0.1-0.3,0-0.6,0.3-0.7c0.1,0,0.1,0,0.2,0h15.1
		c0.2,0,0.4,0.1,0.5,0.3l5.6,13.2c0.1,0.1,0.1,0.3,0,0.5C413.5,354.8,413.4,354.9,413.2,354.8z M397.9,353.8h14.5l-5.2-12.2h-14
		L397.9,353.8z"/>
	<polygon class="st1" points="271.6,306.6 271,295.6 256.2,295.6 256.2,306.6 	"/>
	<path class="st2" d="M271.6,307.1h-15.4c-0.3,0-0.5-0.2-0.5-0.5v-11c0-0.1,0-0.3,0.1-0.4s0.2-0.2,0.4-0.1H271
		c0.3,0,0.5,0.2,0.5,0.5l0.5,11c0,0.1,0,0.3-0.1,0.4C271.8,307,271.7,307.1,271.6,307.1z M256.7,306.1H271l-0.5-10h-13.9
		L256.7,306.1z"/>
	<polygon class="st1" points="383.4,317.3 397.4,317.3 392.8,306.6 379.2,306.6 	"/>
	<path class="st2" d="M397.4,317.8h-14.1c-0.2,0-0.4-0.1-0.5-0.3l-4.1-10.8c-0.1-0.3,0-0.5,0.3-0.6c0.1,0,0.1,0,0.2,0h13.6
		c0.2,0,0.4,0.1,0.5,0.3l4.6,10.7c0.1,0.1,0.1,0.3,0,0.5C397.8,317.7,397.6,317.8,397.4,317.8z M383.7,316.8h13l-4.1-9.7H380
		L383.7,316.8z"/>
	<polygon class="st1" points="375.5,341.1 392.5,341.1 387.8,328.8 371.3,328.8 	"/>
	<path class="st2" d="M392.5,341.6h-17c-0.2,0-0.4-0.1-0.5-0.3l-4.2-12.3c-0.1-0.3,0.1-0.5,0.3-0.6c0.1,0,0.1,0,0.2,0h16.5
		c0.2,0,0.4,0.1,0.5,0.3l4.8,12.3c0.1,0.2,0,0.3-0.1,0.5C392.8,341.5,392.7,341.6,392.5,341.6z M375.8,340.6h15.9l-4.3-11.3H372
		L375.8,340.6z"/>
	<polygon class="st1" points="163.9,306.6 167.1,295.6 152.2,295.6 148.6,306.6 	"/>
	<path class="st2" d="M163.9,307.1h-15.4c-0.3,0-0.5-0.2-0.5-0.5c0-0.1,0-0.1,0-0.2l3.7-11c0.1-0.2,0.3-0.3,0.5-0.3h14.9
		c0.2,0,0.3,0.1,0.4,0.2c0.1,0.1,0.1,0.3,0.1,0.4l-3.1,11C164.3,306.9,164.2,307.1,163.9,307.1z M149.3,306.1h14.3l2.9-10h-13.8
		L149.3,306.1z"/>
	<polygon class="st1" points="363.8,306.6 367.5,317.3 383.4,317.3 379.2,306.6 	"/>
	<path class="st2" d="M383.3,317.8h-15.9c-0.2,0-0.4-0.1-0.5-0.3l-3.6-10.7c-0.1-0.2,0-0.3,0.1-0.5c0.1-0.1,0.2-0.2,0.4-0.2h15.4
		c0.2,0,0.4,0.1,0.5,0.3l4.1,10.7c0.1,0.2,0,0.3,0,0.5C383.7,317.7,383.5,317.8,383.3,317.8z M367.8,316.8h14.8l-3.7-9.7h-14.3
		L367.8,316.8z"/>
	<polygon class="st1" points="392.8,306.6 388.1,295.6 375,295.6 379.2,306.6 	"/>
	<path class="st2" d="M392.8,307.1h-13.6c-0.2,0-0.4-0.1-0.5-0.3l-4.2-11c-0.1-0.2,0-0.3,0.1-0.5c0.1-0.1,0.2-0.2,0.4-0.2h13.1
		c0.2,0,0.4,0.1,0.5,0.3l4.7,11c0.1,0.2,0,0.3,0,0.5C393.2,307,393,307.1,392.8,307.1z M379.6,306.1h12.5l-4.3-10h-12.1L379.6,306.1
		z"/>
	<polygon class="st1" points="379.2,306.6 375,295.6 360.1,295.6 363.8,306.6 	"/>
	<path class="st2" d="M379.2,307.1h-15.4c-0.2,0-0.4-0.1-0.5-0.3l-3.7-11c0-0.2,0-0.3,0.1-0.5c0.1-0.1,0.2-0.2,0.4-0.2H375
		c0.2,0,0.4,0.1,0.5,0.3l4.2,11c0.1,0.3,0,0.6-0.3,0.7C379.3,307.1,379.3,307.1,379.2,307.1z M364.2,306.1h14.3l-3.8-10h-13.8
		L364.2,306.1z"/>
	<polygon class="st1" points="324.4,341.1 326.9,354.3 344.6,354.3 341.4,341.1 	"/>
	<path class="st2" d="M344.6,354.8h-17.7c-0.2,0-0.5-0.2-0.5-0.4l-2.5-13.2c0-0.1,0-0.3,0.1-0.4s0.2-0.2,0.4-0.2h17
		c0.2,0,0.4,0.2,0.5,0.4l3.2,13.2c0,0.1,0,0.3-0.1,0.4C344.8,354.8,344.7,354.8,344.6,354.8z M327.3,353.8h16.6l-2.9-12.2h-16
		L327.3,353.8z"/>
	<polygon class="st1" points="379.9,354.3 397.6,354.3 392.5,341.1 375.5,341.1 	"/>
	<path class="st2" d="M397.6,354.8h-17.7c-0.2,0-0.4-0.1-0.5-0.3l-4.4-13.2c0-0.2,0-0.3,0.1-0.5c0.1-0.1,0.2-0.2,0.4-0.2h17
		c0.2,0,0.4,0.1,0.5,0.3l5,13.2c0.1,0.1,0.1,0.3,0,0.5S397.7,354.8,397.6,354.8z M380.3,353.8h16.6l-4.7-12.2h-16L380.3,353.8z"/>
	<polygon class="st1" points="363.8,306.6 360.1,295.6 345.3,295.6 348.5,306.6 	"/>
	<path class="st2" d="M363.8,307.1h-15.4c-0.2,0-0.4-0.2-0.5-0.4l-3.2-11c0-0.2,0-0.3,0.1-0.4s0.2-0.2,0.4-0.2h14.9
		c0.2,0,0.4,0.1,0.5,0.3l3.7,11c0,0.2,0,0.3-0.1,0.5C364.2,307,364,307.1,363.8,307.1z M348.8,306.1h14.3l-3.4-10H346L348.8,306.1z"
		/>
	<polygon class="st1" points="358.4,341.1 362.2,354.3 379.9,354.3 375.5,341.1 	"/>
	<path class="st2" d="M379.9,354.8h-17.7c-0.2,0-0.4-0.2-0.5-0.4l-3.8-13.2c0-0.2,0-0.3,0.1-0.4s0.2-0.2,0.4-0.2h17
		c0.2,0,0.4,0.1,0.5,0.3l4.5,13.2c0,0.2,0,0.3-0.1,0.5C380.2,354.8,380,354.8,379.9,354.8z M362.6,353.8h16.6l-4.1-12.2h-16
		L362.6,353.8z"/>
	<polygon class="st1" points="341.4,341.1 344.6,354.3 362.2,354.3 358.4,341.1 	"/>
	<path class="st2" d="M362.2,354.8h-17.7c-0.2,0-0.4-0.2-0.5-0.4l-3.2-13.2c0-0.1,0-0.3,0.1-0.4s0.2-0.2,0.4-0.2h17
		c0.2,0,0.4,0.1,0.5,0.4l3.8,13.2c0,0.2,0,0.3-0.1,0.4C362.5,354.8,362.4,354.8,362.2,354.8z M345,353.8h16.6l-3.6-12.2h-16
		L345,353.8z"/>
	<polygon class="st1" points="371.3,328.8 387.8,328.8 383.4,317.3 367.5,317.3 	"/>
	<path class="st2" d="M387.8,329.3h-16.5c-0.2,0-0.4-0.1-0.5-0.3l-3.8-11.5c-0.1-0.3,0.1-0.5,0.3-0.6c0.1,0,0.1,0,0.2,0h15.9
		c0.2,0,0.4,0.1,0.5,0.3l4.4,11.5c0.1,0.2,0,0.5-0.3,0.6C387.9,329.3,387.8,329.3,387.8,329.3L387.8,329.3z M371.7,328.3H387
		l-4-10.5h-14.9L371.7,328.3z"/>
	<polygon class="st1" points="225.4,306.6 226.5,295.6 211.6,295.6 210.1,306.6 	"/>
	<path class="st2" d="M225.4,307.1H210c-0.1,0-0.3-0.1-0.4-0.2c-0.1-0.1-0.1-0.2-0.1-0.4l1.6-11c0-0.2,0.2-0.4,0.5-0.4h14.9
		c0.1,0,0.3,0.1,0.4,0.2c0.1,0.1,0.1,0.2,0.1,0.4l-1,11C226,306.9,225.7,307.1,225.4,307.1z M210.6,306.1H225l0.9-10H212
		L210.6,306.1z"/>
	<polygon class="st1" points="348.5,306.6 345.3,295.6 330.5,295.6 333.1,306.6 	"/>
	<path class="st2" d="M348.5,307.1h-15.4c-0.2,0-0.4-0.2-0.5-0.4l-2.6-11c0-0.1,0-0.3,0.1-0.4s0.2-0.2,0.4-0.2h14.9
		c0.2,0,0.4,0.1,0.5,0.4l3.2,11c0.1,0.3-0.1,0.6-0.4,0.6C348.5,307.1,348.5,307.1,348.5,307.1L348.5,307.1z M333.5,306.1h14.3
		l-2.9-10h-13.8L333.5,306.1z"/>
	<polygon class="st1" points="210.1,306.6 211.6,295.6 196.8,295.6 194.7,306.6 	"/>
	<path class="st2" d="M210.1,307.1h-15.4c-0.2,0-0.3-0.1-0.4-0.2c-0.1-0.1-0.1-0.3-0.1-0.4l2.1-11c0-0.2,0.2-0.4,0.5-0.4h14.9
		c0.1,0,0.3,0.1,0.4,0.2c0.1,0.1,0.1,0.3,0.1,0.4l-1.6,11C210.5,306.9,210.3,307.1,210.1,307.1z M195.3,306.1h14.3l1.4-10h-13.9
		L195.3,306.1z"/>
	<polygon class="st1" points="256.2,306.6 256.2,295.6 241.3,295.6 240.8,306.6 	"/>
	<path class="st2" d="M256.2,307.1h-15.4c-0.1,0-0.3-0.1-0.4-0.2c-0.1-0.1-0.2-0.2-0.1-0.4l0.5-11c0-0.3,0.2-0.5,0.5-0.5h14.8
		c0.3,0,0.5,0.2,0.5,0.5v11C256.7,306.8,256.5,307.1,256.2,307.1L256.2,307.1z M241.3,306.1h14.4v-10h-13.9L241.3,306.1z"/>
	<polygon class="st1" points="194.7,306.6 196.8,295.6 181.9,295.6 179.3,306.6 	"/>
	<path class="st2" d="M194.7,307.1h-15.4c-0.2,0-0.3-0.1-0.4-0.2c-0.1-0.1-0.1-0.3-0.1-0.4l2.6-11c0.1-0.2,0.3-0.4,0.5-0.4h14.9
		c0.1,0,0.3,0.1,0.4,0.2c0.1,0.1,0.1,0.3,0.1,0.4l-2.1,11C195.1,306.9,194.9,307.1,194.7,307.1z M179.9,306.1h14.3l1.9-10h-13.9
		L179.9,306.1z"/>
	<polygon class="st1" points="179.3,306.6 181.9,295.6 167.1,295.6 163.9,306.6 	"/>
	<path class="st2" d="M179.3,307.1h-15.4c-0.2,0-0.3-0.1-0.4-0.2c-0.1-0.1-0.1-0.3-0.1-0.4l3.1-11c0.1-0.2,0.3-0.4,0.5-0.4h14.9
		c0.2,0,0.3,0.1,0.4,0.2c0.1,0.1,0.1,0.3,0.1,0.4l-2.6,11C179.7,306.9,179.5,307.1,179.3,307.1z M164.6,306.1h14.3l2.4-10h-13.9
		L164.6,306.1z"/>
	<polygon class="st1" points="240.8,306.6 241.3,295.6 226.5,295.6 225.4,306.6 	"/>
	<path class="st2" d="M240.8,307.1h-15.4c-0.1,0-0.3-0.1-0.4-0.2c-0.1-0.1-0.1-0.2-0.1-0.4l1.1-11c0-0.3,0.2-0.4,0.5-0.5h14.9
		c0.1,0,0.3,0.1,0.4,0.2c0.1,0.1,0.1,0.2,0.1,0.4l-0.5,11C241.3,306.9,241.1,307.1,240.8,307.1z M226,306.1h14.4l0.5-10H227
		L226,306.1z"/>
	<polygon class="st1" points="333.1,306.6 330.5,295.6 315.6,295.6 317.7,306.6 	"/>
	<path class="st2" d="M333.1,307.1h-15.4c-0.2,0-0.5-0.2-0.5-0.4l-2.1-11c0-0.3,0.1-0.5,0.4-0.6h0.1h14.9c0.2,0,0.4,0.2,0.5,0.4
		l2.6,11c0.1,0.3-0.1,0.5-0.4,0.6H333.1L333.1,307.1z M318.1,306.1h14.3l-2.4-10h-13.8L318.1,306.1z"/>
	<polygon class="st1" points="317.7,306.6 315.6,295.6 300.7,295.6 302.3,306.6 	"/>
	<path class="st2" d="M317.7,307.1h-15.4c-0.2,0-0.5-0.2-0.5-0.4l-1.6-11c0-0.1,0-0.3,0.1-0.4s0.2-0.2,0.4-0.2h14.9
		c0.2,0,0.5,0.2,0.5,0.4l2.1,11c0,0.1,0,0.3-0.1,0.4S317.9,307.1,317.7,307.1z M302.8,306.1h14.3l-1.9-10h-13.9L302.8,306.1z"/>
	<polygon class="st1" points="287,306.6 285.9,295.6 271,295.6 271.6,306.6 	"/>
	<path class="st2" d="M287,307.1h-15.4c-0.3,0-0.5-0.2-0.5-0.5l-0.5-11c0-0.1,0-0.3,0.1-0.4s0.2-0.2,0.4-0.2H286
		c0.3,0,0.5,0.2,0.5,0.5l1.1,11C287.5,306.8,287.3,307,287,307.1L287,307.1L287,307.1z M272.1,306.1h14.3l-1-10h-13.8L272.1,306.1z"
		/>
	<polygon class="st1" points="324.4,341.1 307.3,341.1 290.3,341.1 273.3,341.1 256.2,341.1 239.2,341.1 222.2,341.1 205.1,341.1 
		188.1,341.1 171.1,341.1 154,341.1 150.3,354.3 167.9,354.3 185.6,354.3 203.3,354.3 220.9,354.3 238.6,354.3 256.2,354.3 
		273.9,354.3 291.6,354.3 309.2,354.3 326.9,354.3 	"/>
	<path class="st2" d="M326.9,354.8H150.3c-0.2,0-0.3-0.1-0.4-0.2c-0.1-0.1-0.1-0.3-0.1-0.4l3.8-13.2c0.1-0.2,0.3-0.4,0.5-0.4h170.3
		c0.2,0,0.5,0.2,0.5,0.4l2.5,13.2c0,0.1,0,0.3-0.1,0.4C327.2,354.8,327,354.8,326.9,354.8z M150.9,353.8h175.4l-2.4-12.2H154.4
		L150.9,353.8z"/>
	<polygon class="st1" points="302.3,306.6 300.7,295.6 285.9,295.6 287,306.6 	"/>
	<path class="st2" d="M302.3,307.1H287c-0.3,0-0.5-0.2-0.5-0.5l-1.1-11c0-0.1,0-0.3,0.1-0.4s0.2-0.2,0.4-0.2h14.9
		c0.2,0,0.5,0.2,0.5,0.4l1.6,11c0,0.1,0,0.3-0.1,0.4C302.7,307,302.5,307.1,302.3,307.1z M287.4,306.1h14.3l-1.4-10h-13.9
		L287.4,306.1z"/>
	<rect x="63.3" y="377.6" class="st1" width="378.5" height="5.4"/>
	<path class="st1" d="M441.8,383.4H63.3c-0.3,0-0.5-0.2-0.5-0.5v-5.4c0-0.3,0.2-0.5,0.5-0.5h378.5c0.3,0,0.5,0.2,0.5,0.5v5.4
		C442.3,383.2,442.1,383.4,441.8,383.4z M63.8,382.4h377.5V378H63.8V382.4z"/>
</g>
<g id="freepik--speech-bubble--inject-4">
	<path class="st1" d="M380,22.7c-31.6,0-57.2,25.6-57.2,57.2c0,15.6,6.4,30.5,17.7,41.3l-8.1,15.2l20-6.5
		c27.6,15.3,62.4,5.3,77.7-22.4c15.3-27.6,5.3-62.4-22.4-77.7C399.2,25.1,389.7,22.7,380,22.7z"/>
	<path class="st1" d="M380,137.6c-9.7,0-19.2-2.4-27.8-7.1l-19.8,6.4c-0.2,0.1-0.4,0-0.5-0.1c-0.1-0.2-0.1-0.4,0-0.6l8-14.9
		c-22.9-22.2-23.5-58.7-1.3-81.6s58.7-23.5,81.6-1.3c11.2,10.9,17.6,25.8,17.6,41.5C437.7,111.7,411.9,137.5,380,137.6z
		 M352.3,129.4c0.1,0,0.2,0,0.2,0.1c27.4,15.2,61.9,5.3,77.1-22.1s5.3-61.9-22.1-77.1s-61.9-5.3-77.1,22.1
		c-4.7,8.4-7.1,17.9-7.1,27.5c-0.1,15.5,6.3,30.3,17.5,41c0.2,0.2,0.2,0.4,0.1,0.6l-7.5,14.1l18.8-6.1L352.3,129.4z"/>
	<path class="st2" d="M377.3,18.6c-31.6,0-57.2,25.6-57.2,57.2c0,15.6,6.4,30.5,17.7,41.3l-8.1,15.2l20-6.5
		c27.6,15.3,62.4,5.3,77.7-22.4c15.3-27.6,5.3-62.4-22.4-77.7C396.5,21,387,18.6,377.3,18.6z"/>
	<path class="st1" d="M377.3,133.5c-9.7,0-19.2-2.4-27.8-7.1l-19.8,6.4c-0.2,0.1-0.4,0-0.5-0.2s-0.2-0.4-0.1-0.6l8-14.8
		c-22.9-22.2-23.4-58.7-1.3-81.6c22.2-22.9,58.7-23.4,81.6-1.3s23.4,58.7,1.3,81.6C407.9,127.1,393,133.5,377.3,133.5L377.3,133.5z
		 M349.6,125.3c0.1,0,0.2,0,0.2,0.1c27.4,15.2,62,5.3,77.3-22.1s5.3-62-22.1-77.3s-62-5.3-77.3,22.1c-12.5,22.6-8.3,50.8,10.4,68.6
		c0.2,0.2,0.2,0.4,0.1,0.6l-7.5,14.1l18.8-6.1L349.6,125.3z"/>
	<g id="freepik--Code--inject-4">
		<path class="st3" d="M358.2,99.3l-22-15.5v-8.2l22-15.7v8.3l-15.8,11.4L358.2,91V99.3z"/>
		<path class="st3" d="M364.9,102.1l16.8-62.3h7.1L372,102.1H364.9z"/>
		<path class="st3" d="M395.4,99.3v-8.2l15.8-11.5l-15.8-11.4v-8.3l22.1,15.6v8.2L395.4,99.3z"/>
		<path class="st1" d="M360.9,95.9l-22-15.5v-8.2l22-15.7v8.3l-15.8,11.4l15.8,11.4V95.9z"/>
		<path class="st1" d="M367.6,98.7l16.8-62.2h7.1l-16.8,62.2H367.6z"/>
		<path class="st1" d="M398.1,95.9v-8.2L414,76.2l-15.9-11.4v-8.3l22.1,15.6v8.2L398.1,95.9z"/>
	</g>
</g>
<g id="freepik--hand-2--inject-4">
	<path class="st1" d="M333.8,383.5l34.6,28.6c1.7,4.1,4,8,6.8,11.6c4.8,6.1,60.6,29.3,60.6,29.3l9.5,2.7l-104.2-78.3L333.8,383.5z"
		/>
	<path class="st1" d="M445.4,456.2h-0.1l-9.5-2.7c-2.3-1-56.1-23.3-60.9-29.5c-2.8-3.5-5.1-7.4-6.8-11.6l-34.5-28.5
		c-0.1-0.1-0.2-0.2-0.2-0.4c0-0.1,0.1-0.3,0.2-0.4l7.4-6.1c0.2-0.1,0.4-0.1,0.6,0l104.2,78.3c0.2,0.1,0.3,0.4,0.1,0.6
		C445.8,456.1,445.6,456.2,445.4,456.2z M334.6,383.5l34.2,28.2c0.1,0.1,0.1,0.1,0.1,0.2c1.7,4.1,4,8,6.7,11.5
		c4.6,6,59.8,28.9,60.4,29.1l6.9,2L341.2,378L334.6,383.5z"/>
	<path class="st2" d="M401.3,360.8c0,0-9.3-11.4-13.4-18.6s-10-24.1-14.5-34.1s-11-13.1-18.9-16.2s-11-2.4-11-0.3s3.1,5.9,3.1,5.9
		l-13.4,2.4c0,0-5.5-3.1-9-2.1s-10,7.6-10,7.6s-6.9-2.4-11-1.4s-15.5,6.5-20.3,9s-10,2.8-9.6,4.8s5.2,5.5,9.6,4.8s12-3.5,16.9-3.5
		s7.2,1,9.6,2.8s12.4,15.8,13.8,17.5s2.8,8.6,2.8,8.6s-6.1-2.6-9.9-6s-9.2-11.5-15.4-12.2s-12.9,4.8-9.5,7.6s6.9,4.5,9.3,7.6
		s6.2,12.4,12.7,22.4s20.6,16.2,20.6,16.2l29.3,12c0,0,7.6-17.9,21.7-22.7S403,366,403,366L401.3,360.8z"/>
	<path class="st1" d="M363.1,396.1c-0.1,0-0.1,0-0.2,0L333.6,384c-0.1-0.1-14.3-6.4-20.9-16.4c-3.2-4.9-6.1-10.1-8.7-15.3
		c-1.2-2.4-2.5-4.8-4-7c-1.7-2-3.6-3.6-5.8-5c-1.1-0.8-2.2-1.6-3.4-2.5c-1.1-0.8-1.4-2.2-0.9-3.4c1.1-2.8,6.1-5.6,10.7-5.1
		s9.1,5.2,12.5,9c1.1,1.3,2.2,2.5,3.2,3.3c2.7,2.2,5.7,4.1,8.8,5.5c-0.5-2.3-1.5-6.3-2.5-7.4c-0.3-0.4-1.2-1.5-2.3-3.1
		c-3.4-4.6-9.6-13.1-11.4-14.4c-2.4-1.7-4.6-2.7-9.3-2.7c-2.9,0-7,1.1-10.6,2c-2.3,0.6-4.5,1.2-6.2,1.4c-4.6,0.7-9.8-2.8-10.2-5.2
		c-0.3-1.7,1.8-2.4,4.6-3.3c1.8-0.5,3.6-1.2,5.3-2c2.6-1.3,15.8-7.8,20.4-9c3.8-1,9.6,0.8,11,1.3c1.2-1.2,6.8-6.5,10-7.5
		s8.2,1.5,9.2,2l12.4-2.2c-0.9-1.2-2.7-3.8-2.7-5.5c0-0.7,0.3-1.3,0.9-1.7c1.6-1.1,5.4-0.5,10.8,1.6c8.1,3.2,14.7,6.4,19.2,16.4
		c1.8,3.9,3.7,8.8,5.7,13.9c3.1,7.7,6.2,15.7,8.7,20.1c4.1,7.1,13.3,18.4,13.4,18.5c0,0,0.1,0.1,0.1,0.2l1.7,5.2
		c0.1,0.2,0,0.5-0.3,0.6c-0.2,0.1-4.3,2.1-18.3,6.9c-13.7,4.7-21.3,22.3-21.4,22.4C363.5,396,363.3,396.1,363.1,396.1z M299.6,330.3
		c-3.9,0-7.8,2.3-8.7,4.5c-0.4,0.8-0.2,1.7,0.6,2.2c1.1,0.9,2.3,1.7,3.3,2.5c2.2,1.4,4.3,3.2,6,5.2c1.5,2.3,2.9,4.7,4.1,7.2
		c2.6,5.2,5.5,10.3,8.7,15.2c6.4,9.7,20.3,15.9,20.4,16l28.8,11.9c1.3-2.8,8.9-18.1,21.8-22.5c11.6-4,16.5-6.1,17.8-6.7l-1.5-4.7
		c-0.8-1-9.5-11.7-13.4-18.6c-2.5-4.4-5.7-12.5-8.8-20.2c-2-5.1-4-10-5.7-13.9c-4.4-9.7-10.5-12.7-18.6-15.9
		c-7.1-2.8-9.3-2.1-9.9-1.7c-0.3,0.2-0.5,0.5-0.4,0.9c0,1.5,2.1,4.5,3,5.5c0.2,0.2,0.1,0.5-0.1,0.7c-0.1,0.1-0.1,0.1-0.2,0.1
		l-13.4,2.4c-0.1,0-0.2,0-0.3-0.1c0,0-5.4-3-8.6-2s-9.7,7.4-9.8,7.4c-0.1,0.1-0.3,0.2-0.5,0.1c-0.1,0-6.8-2.3-10.7-1.4
		c-3.5,0.9-13.1,5.4-20.2,8.9c-1.7,0.8-3.6,1.5-5.4,2.1c-2.2,0.7-4.1,1.3-4,2.2c0.3,1.8,4.9,5,9.1,4.4c1.7-0.3,3.8-0.8,6.1-1.4
		c3.7-1,7.8-2,10.8-2c5,0,7.5,1.1,9.9,2.9c1.8,1.3,6.9,8.2,11.6,14.6c1.1,1.5,1.9,2.6,2.3,3c1.4,1.8,2.8,8.5,2.9,8.8
		c0,0.2,0,0.4-0.2,0.5c-0.1,0.1-0.3,0.1-0.5,0.1c-3.6-1.6-7-3.6-10-6.1c-1-0.9-2.1-2.1-3.3-3.4c-3.3-3.6-7.4-8.2-11.9-8.7
		C300.3,330.3,299.9,330.3,299.6,330.3z"/>
	<path class="st1" d="M273.3,318.3c-0.3,0-0.5-0.2-0.6-0.4s0.2-0.5,0.4-0.6c0,0,3.4-0.9,4.3-1.2c0.7-0.3,1.3-0.7,1.9-1.2
		c0.2-0.2,0.5-0.1,0.7,0.1s0.2,0.5,0,0.7l0,0c-0.7,0.6-1.4,1.1-2.3,1.4C276.7,317.4,273.5,318.2,273.3,318.3L273.3,318.3z"/>
	<path class="st1" d="M346.9,333c-0.1,0-0.2,0-0.3-0.1c-2.3-2.3-4-5.3-5-8.5c-1.2-4-4.9-6-6.9-7l-0.4-0.2
		c-4.4-2.4-20.2-11.2-20.3-11.3c-0.2-0.1-0.3-0.4-0.2-0.7c0.1-0.2,0.4-0.3,0.7-0.2l0,0c0.2,0.1,15.9,8.9,20.3,11.3l0.4,0.2
		c2,1,6.1,3.2,7.4,7.6c0.9,3,2.5,5.8,4.7,8c0.2,0.2,0.2,0.5,0,0.7C347.2,333,347,333,346.9,333L346.9,333z"/>
	<path class="st1" d="M359.6,323.1c-0.2,0-0.4-0.1-0.5-0.3c0,0-1.7-3.5-3.4-6.5c-1.3-2.4-4-3-5.5-3.4c-0.3-0.1-0.6-0.1-0.8-0.2
		c-1.1-0.4-14.1-10.5-16.7-12.5c-0.2-0.2-0.3-0.5-0.1-0.7c0.2-0.2,0.5-0.3,0.7-0.1l0,0c5.9,4.6,15.5,12,16.4,12.3
		c0.1,0,0.4,0.1,0.7,0.2c1.5,0.3,4.6,1.1,6.1,3.8c1.7,3.1,3.4,6.5,3.5,6.6c0.1,0.2,0,0.5-0.2,0.7l0,0
		C359.8,323.1,359.7,323.1,359.6,323.1z"/>
	<path class="st1" d="M365.1,315.2c-0.1,0-0.3-0.1-0.4-0.2c-0.4-0.4-9-10.1-11.1-14.2c-1.9-3.7-7-2.8-7-2.8c-0.3,0-0.5-0.1-0.6-0.4
		c0-0.3,0.1-0.5,0.4-0.6c0.1,0,5.9-1.1,8.1,3.4c2,4,10.9,13.9,10.9,14c0.2,0.2,0.2,0.5,0,0.7C365.4,315.2,365.3,315.2,365.1,315.2z"
		/>
	<path class="st1" d="M297.4,342.4c-0.2,0-0.4-0.1-0.5-0.3c-0.1-0.2,0-0.5,0.2-0.7l0,0c1-0.5,1.8-1.4,2.3-2.5c0.2-0.7,0-1.4-0.4-2
		c-1.9-2.8-5.7-2.9-5.8-2.9c-0.3,0-0.5-0.2-0.5-0.5s0.2-0.5,0.5-0.5c0.2,0,4.4,0,6.6,3.3c0.6,0.8,0.8,1.8,0.6,2.8
		c-0.5,1.3-1.5,2.4-2.8,3.1C297.5,342.4,297.4,342.4,297.4,342.4z"/>
	<path class="st4" d="M400.6,356.4c0,0-18.6,4.8-30.3,17.9s-11.7,24.1-10.7,25.8s23.4,13.8,23.4,13.8s13.8-26.5,23.4-33
		s16.6-8.3,16.6-8.3s-17.2-11-17.9-12.4S403,355.3,400.6,356.4z"/>
	<path class="st1" d="M383,414.3c-0.1,0-0.2,0-0.2-0.1c-3.8-2-22.5-12.2-23.6-14s-1.2-13.1,10.7-26.4c11.4-12.8,29.5-17.8,30.5-18
		c2.6-1.1,4.2,2.1,4.9,3.6l0.2,0.4c0.6,1,11.2,8,17.7,12.2c0.2,0.1,0.3,0.3,0.2,0.5c0,0.2-0.2,0.4-0.4,0.4c-0.1,0-6.9,1.8-16.4,8.2
		s-23.1,32.6-23.2,32.9c-0.1,0.1-0.2,0.2-0.3,0.3H383z M401.4,356.7c-0.2,0-0.5,0.1-0.7,0.1h-0.1c-0.2,0-18.6,4.9-30,17.7
		S359,398.1,360,399.7c0.7,1.2,14.1,8.7,22.8,13.3c1.9-3.6,14.3-26.6,23.3-32.8c4.8-3.4,10.1-6.1,15.6-8c-4.2-2.7-16.5-10.7-17.1-12
		l-0.2-0.4C403.6,358.3,402.7,356.7,401.4,356.7L401.4,356.7z M400.5,356.4L400.5,356.4z"/>
	<path class="st4" d="M436.7,376c-1.7-0.7-2.1-4.8-3.8-6.2c-1.7-1.4-8.3-0.7-8.3-0.7s-9.6-0.7-25.1,13.8S380.6,411.8,382,419
		s4.5,6.9,6.5,7.9c1.9,0.8,3.9,1.5,5.8,2.1l35.1,18.9c4.5,2.4,23.4,12,23.4,12s26.1-10.4,33.2-31.6c5.3-16.2,0-37.3,0-37.3
		S438.4,376.7,436.7,376z"/>
	<path class="st1" d="M452.9,460.4c-0.1,0-0.2,0-0.2-0.1c-0.2-0.1-19-9.7-23.4-12l-35-18.9c-2-0.5-4-1.2-5.9-2.1
		c-0.4-0.2-0.7-0.3-1.1-0.4c-2-0.7-4.5-1.6-5.7-7.8s1.2-21.1,17.7-36.6c15.5-14.4,25.1-13.9,25.5-13.9c0.6-0.1,6.7-0.7,8.5,0.8
		c0.9,0.9,1.6,2.1,2,3.4c0.5,1.2,1,2.5,1.7,2.8c1.7,0.7,48.8,14.8,49.3,14.9c0.3,0.1,0.4,0.4,0.4,0.6c-0.1,0.3-0.4,0.4-0.6,0.4
		c-2-0.6-47.7-14.3-49.4-15c-1.1-0.4-1.7-1.8-2.3-3.3c-0.3-1.1-0.9-2.1-1.7-2.9c-1.3-1-6.1-0.8-7.9-0.6c-0.2,0-9.7-0.5-24.8,13.6
		c-16.2,15.1-18.6,29.5-17.4,35.7c1.1,5.7,3.2,6.4,5,7.1c0.4,0.1,0.8,0.3,1.2,0.5c1.9,0.8,3.8,1.5,5.8,2h0.1l35.1,18.9
		c4.4,2.4,23.2,12,23.4,12c0.2,0.1,0.3,0.4,0.2,0.7C453.3,460.3,453.1,460.4,452.9,460.4z"/>
	<path class="st1" d="M401.6,426.4c-0.2,0-0.3-0.1-0.4-0.3c-4.9-8.7-2.9-18.8-2.8-19.3c0-0.3,0.3-0.4,0.6-0.4l0,0
		c0.3,0,0.5,0.3,0.4,0.6l0,0c0,0.1-2,10.2,2.7,18.6c0.1,0.2,0,0.5-0.2,0.7C401.8,426.3,401.7,426.4,401.6,426.4L401.6,426.4z"/>
	<path class="st1" d="M407.1,430.5c-0.2,0-0.3-0.1-0.4-0.2c-3-5-4.3-8.2-3.8-9.7c0.1-0.3,0.3-0.5,0.6-0.7c0.3-0.1,0.5,0.1,0.6,0.3
		c0.1,0.2,0,0.5-0.3,0.6c-0.1,0.1-0.9,1.6,3.6,8.9c0.1,0.2,0.1,0.5-0.2,0.7l0,0C407.3,430.5,407.2,430.5,407.1,430.5z M403.9,420.8
		L403.9,420.8z"/>
</g>
<g id="freepik--hand-1--inject-4">
	<path class="st1" d="M191.6,353.2c0,0-22.7,27-29.5,32.4c-4.1,3.3-8.4,6.2-12.9,8.9L124.7,419c0,0,0.7,3.4-6.1,7.5
		s-20.4,8.9-23.8,10.2S53.9,455,53.9,455L191.6,353.2z"/>
	<path class="st1" d="M53.9,455.5c-0.2,0-0.3-0.1-0.4-0.2c-0.1-0.2-0.1-0.5,0.1-0.7l137.7-101.9c0.2-0.2,0.5-0.1,0.7,0.1
		s0.1,0.5,0,0.7c-0.9,1.1-22.8,27-29.6,32.5c-4.1,3.3-8.4,6.2-12.9,8.9l-24.3,24.3c0,1-0.4,4.1-6.4,7.7c-5.6,3.4-15.6,7.1-21,9.2
		c-1.3,0.5-2.2,0.8-2.9,1.1c-3.3,1.3-40.5,18.2-40.8,18.4C54.1,455.5,54,455.5,53.9,455.5z M188.5,356.1L58,452.6
		c10-4.5,33.8-15.4,36.6-16.4l2.9-1.1c5.4-2,15.4-5.8,20.9-9.1c6.3-3.8,5.9-6.9,5.9-7c0-0.2,0-0.3,0.1-0.5l24.5-24.5h0.1
		c4.5-2.6,8.8-5.6,12.9-8.8C167.1,381,182.2,363.5,188.5,356.1z"/>
	<path class="st2" d="M224.6,311.9c-2.4,0.7-11,0.2-11,0.2s-5.2-4-7.9-6.4s-9.3-16.5-12.6-17.2s-17.4,7.4-17.4,7.4s-11.4-5-14.3-4.5
		s-12.2,8.8-12.2,8.8s-12.9-1.9-15.3,1.9s-6.2,16-10,23.6s-17.7,27.9-17.7,27.9l-1.9,2.6c0,0,2.9,1,11.7,5.5s22.9,26,22.9,26
		s19.6-9.1,30.5-14.1s19.8-16,22.2-20.5s6.4-8.8,11.4-12.9s14.3-5.7,16.5-8.6s-1.4-7.1-1.4-7.1c1.3-0.7,2.6-1.5,3.8-2.4
		c1.2-1,6-3.6,6.4-6.4S226.9,311.2,224.6,311.9z M187.8,334.8l4.5-13.8c1.9,1.4,10.3,4.5,10.3,4.5
		C197.1,326.9,187.8,334.8,187.8,334.8z"/>
	<path class="st1" d="M139,388.2c-0.2,0-0.3-0.1-0.4-0.2c-0.1-0.2-14.1-21.4-22.7-25.8s-11.6-5.4-11.6-5.5c-0.3-0.1-0.4-0.4-0.3-0.6
		c0,0,0-0.1,0.1-0.1l1.9-2.6c0.1-0.2,13.8-20.3,17.6-27.8c1.9-3.8,3.8-8.7,5.5-13c1.8-4.6,3.4-8.7,4.6-10.6
		c2.4-3.8,13.7-2.4,15.5-2.2c1.6-1.4,9.4-8.3,12.2-8.8s12.4,3.6,14.4,4.5c2.2-1.3,14.3-8,17.5-7.3c2.1,0.5,4.8,4.8,8.5,10.8
		c1.8,2.9,3.4,5.6,4.4,6.5c2.4,2.1,6.9,5.7,7.7,6.3c1.2,0.1,8.5,0.4,10.6-0.2l0,0c1.2-0.4,2.4-0.2,3.4,0.6c1,1,1.4,2.4,1.1,3.8
		c-0.4,2.5-3.7,4.7-5.6,6c-0.4,0.3-0.8,0.5-1,0.7c-1.1,0.8-2.2,1.5-3.4,2.1c0.9,1.3,3,4.7,1.1,7.3c-1.1,1.5-4,2.7-7.3,4
		s-6.8,2.7-9.2,4.7c-5.4,4.4-9.1,8.5-11.3,12.7S181,369,169.7,374.1c-10.8,5-30.3,14-30.5,14.1C139.1,388.2,139.1,388.2,139,388.2z
		 M105.2,356c1.3,0.5,4.5,1.9,11.1,5.3c8.3,4.3,20.9,22.9,22.8,25.8c2.8-1.3,20.1-9.3,30.1-13.9c11.1-5.1,19.7-16,22-20.3
		s6-8.6,11.6-13c2.6-2.1,6.3-3.5,9.5-4.8c3-1.2,5.9-2.4,6.9-3.7c1.9-2.5-1.4-6.5-1.4-6.5c-0.1-0.1-0.1-0.3-0.1-0.4
		c0-0.2,0.1-0.3,0.3-0.4c1.3-0.7,2.5-1.5,3.7-2.3c0.2-0.2,0.6-0.4,1.1-0.8c1.7-1.1,4.8-3.3,5.2-5.4c0.3-1,0-2.1-0.8-2.9
		c-0.7-0.6-1.6-0.7-2.4-0.4l0,0c-2.4,0.7-10.8,0.3-11.1,0.3c-0.1,0-0.2,0-0.3-0.1c-0.1,0-5.3-4.1-7.9-6.5c-1.1-1-2.7-3.6-4.6-6.7
		c-2.5-4.2-6-9.9-7.9-10.3c-2.6-0.6-13.2,5.1-17.1,7.3c-0.1,0.1-0.3,0.1-0.4,0c-3.1-1.4-11.8-4.9-14-4.5s-9.4,6.4-11.9,8.7
		c-0.1,0.1-0.3,0.1-0.4,0.1c-3.5-0.5-12.9-1.2-14.8,1.7c-1.2,1.9-2.8,6-4.5,10.5s-3.6,9.3-5.5,13.1c-3.8,7.6-17.5,27.8-17.7,28
		L105.2,356z M224.5,311.9L224.5,311.9z M187.8,335.3c-0.1,0-0.2,0-0.3-0.1c-0.2-0.1-0.3-0.4-0.2-0.6l4.5-13.8
		c0-0.2,0.2-0.3,0.3-0.3c0.2,0,0.3,0,0.4,0.1c1.8,1.4,10.1,4.4,10.1,4.5c0.3,0,0.5,0.2,0.5,0.5s-0.2,0.5-0.5,0.5
		c-5.3,1.4-14.5,9.1-14.6,9.2C188.1,335.3,188,335.3,187.8,335.3z M192.6,321.8l-3.8,11.6c2.5-2,8-6.2,12.3-7.9
		C198.2,324.4,195.4,323.2,192.6,321.8z"/>
	<path class="st1" d="M140.1,316.5c-0.2,0-0.5-0.2-0.5-0.4c-0.1-0.4-0.7-4.2-0.2-5.7s7.9-9,9.4-10.5c0.2-0.2,0.5-0.2,0.7,0
		s0.2,0.5,0,0.7c-3.4,3.4-8.9,9.1-9.2,10.1s0.1,4.1,0.3,5.2C140.7,316.2,140.5,316.4,140.1,316.5L140.1,316.5z"/>
	<path class="st1" d="M147.8,321.2h-0.1c-0.3-0.1-0.4-0.3-0.3-0.6l0,0l1.9-6.2c0-0.1,0.1-0.2,0.2-0.3l26-18.6
		c0.2-0.2,0.5-0.1,0.7,0.1l0,0c0.2,0.2,0.1,0.5-0.1,0.7l0,0l-25.9,18.5l-1.9,6C148.2,321.1,148,321.2,147.8,321.2z"/>
	<path class="st1" d="M160.6,325.8L160.6,325.8c-0.3,0-0.5-0.3-0.5-0.6c0.2-1,1.1-6.2,2.3-7.2s9-2.8,10.3-3.2c2.5-2.2,14-12,16.4-12
		c1,0,3.7,1.2,8.3,3.2c5.6,2.5,13.3,5.9,15.9,5.6c0.3,0,0.5,0.2,0.6,0.4c0,0.3-0.2,0.5-0.4,0.6c-2.9,0.3-10.1-2.9-16.4-5.7
		c-3.5-1.5-7.1-3.1-7.9-3.1c-1.6,0-10.6,7.2-15.9,11.8c-0.1,0.1-0.1,0.1-0.2,0.1c-3.5,0.8-9.3,2.4-10,3s-1.6,4.2-2,6.6
		C161.1,325.6,160.9,325.8,160.6,325.8z"/>
	<path class="st1" d="M222.9,316.7c-1.3,0.1-2.6-0.4-3.5-1.3c-0.6-0.7-0.8-1.3-0.5-1.8c0.4-0.9,2-1,2.3-1l0,0c0.3,0,0.5,0.2,0.5,0.5
		s-0.2,0.5-0.5,0.5l0,0c-0.6,0-1.3,0.2-1.4,0.4c0,0.1,0,0.3,0.4,0.7c1.5,1.7,5.1,0.7,6.4,0.3c0.3-0.1,0.5,0.1,0.6,0.3l0,0
		c0.1,0.3-0.1,0.5-0.3,0.6l0,0C225.6,316.4,224.2,316.6,222.9,316.7z"/>
	<path class="st1" d="M202.6,326c-0.3,0-0.5-0.2-0.5-0.5c0-0.2,0.1-0.3,0.2-0.4c0.4-0.2,8.9-5.1,16-1c0.2,0.1,0.3,0.4,0.2,0.7l0,0
		c-0.1,0.2-0.4,0.3-0.7,0.2c-6.6-3.9-14.9,0.9-15,1C202.8,326,202.7,326,202.6,326z"/>
	<path class="st1" d="M213.6,334.8c-0.2,0-0.5-0.2-0.5-0.4l-0.2-1.4c-0.5-1.8-1.2-3.5-2.1-5.1c-0.1-0.1-0.1-0.3,0-0.4
		c0-0.1,0.2-0.2,0.3-0.3l4.8-1.7c0.3-0.1,0.5,0,0.7,0.2c0.1,0.3,0,0.5-0.2,0.7h-0.1l-4.2,1.5c0.8,1.6,1.5,3.2,1.9,4.9l0.2,1.4
		C214.1,334.5,214,334.8,213.6,334.8L213.6,334.8z"/>
	<path class="st1" d="M183.5,344.8c-0.1,0-0.1,0-0.2,0c-0.3-0.1-0.4-0.4-0.3-0.7l4.3-9.5c0.1-0.2,0.4-0.4,0.6-0.3l0,0
		c0.3,0.1,0.4,0.4,0.3,0.7l-4.3,9.5C183.9,344.7,183.7,344.8,183.5,344.8z"/>
	<path class="st4" d="M74.6,371.8c0,0,15-9.8,20.5-13.8s8.3-3.3,11.2-4.3s17.2,3.4,26.7,15.3s8.6,20.7,7.4,23.1
		s-31.2,20.5-31.2,20.5s-4.3-17.2-16.9-27.4S74.6,371.8,74.6,371.8z"/>
	<path class="st1" d="M109.2,413c-0.1,0-0.1,0-0.2,0c-0.1-0.1-0.3-0.2-0.3-0.3c0-0.2-4.4-17.1-16.8-27.2s-17.5-13.3-17.6-13.3
		c-0.1-0.1-0.2-0.2-0.2-0.4c0-0.2,0.1-0.3,0.2-0.4c0.2-0.1,15.1-9.8,20.5-13.8c2.6-2.1,5.7-3.4,9-3.8c0.8-0.1,1.6-0.3,2.4-0.5
		c3.4-1.1,17.9,3.8,27.3,15.4c9.7,12.2,8.7,21.2,7.4,23.7s-28.4,18.8-31.5,20.7C109.3,413,109.2,413,109.2,413z M75.5,371.8
		c1.7,1.2,7,4.8,17,13c11.2,9.1,16,23.8,16.9,27c11.6-7,29.7-18.4,30.5-20c1.1-2.3,2.1-10.8-7.3-22.6c-9.6-12-23.8-15.9-26.2-15.1
		c-0.8,0.3-1.7,0.4-2.5,0.6c-3.1,0.4-6.1,1.7-8.5,3.6C90.6,361.9,78.4,369.9,75.5,371.8z"/>
	<path class="st4" d="M110.7,404.9c-1.3-7.4-12.7-25.9-22-31s-16.1-7.9-23.2-7.6s-8.5,7.6-8.5,7.6s-5.4,3.8-10,6.6
		s-32.5,19.8-32.5,19.8s-10.4,20.4,0,39.9c11.4,21.3,30.1,21.3,30.1,21.3l52.2-34c0,0,3.4-3,4.9-3s8.8-0.3,10.7-5.1
		C114.3,414.5,111.9,412.3,110.7,404.9z"/>
	<path class="st1" d="M44.5,462c-0.2,0-0.3-0.1-0.4-0.2c-0.2-0.2-0.1-0.5,0.1-0.7l0,0l52.2-34c0.5-0.5,3.6-3.1,5.2-3.1
		c1.4,0,8.4-0.2,10.3-4.8c1.2-3,0.7-4.9-0.3-8c-0.6-2-1.1-4.1-1.5-6.2c-1.2-7.4-12.6-25.6-21.7-30.6c-8.9-4.9-15.8-7.8-22.9-7.5
		c-6.6,0.2-8.1,7.1-8.1,7.2s-0.1,0.2-0.2,0.3c-0.1,0-5.4,3.9-10,6.6S15,400.5,14.7,400.7c-0.2,0.1-0.5,0.1-0.7-0.2l0,0
		c-0.1-0.2-0.1-0.5,0.2-0.7l0,0c0.3-0.2,27.9-17,32.5-19.8c4.1-2.5,8.9-5.8,9.8-6.5c0.3-1.2,2.3-7.6,9-7.8
		c7.4-0.3,14.4,2.7,23.4,7.7c9.3,5.1,21,23.8,22.2,31.3c0.4,2,0.8,4.1,1.5,6.1c0.9,3.1,1.6,5.4,0.2,8.7c-2.1,5.1-9.7,5.4-11.2,5.4
		c-0.9,0-3.3,1.8-4.6,2.9l-52.3,34.1C44.7,462,44.6,462,44.5,462z"/>
	<path class="st1" d="M98.7,420.4c-0.1,0-0.2,0-0.3-0.1c-0.2-0.1-0.3-0.4-0.2-0.7l0,0c4-6.2,2.3-7.8,2.3-7.8
		c-0.2-0.2-0.2-0.5-0.1-0.7c0.2-0.2,0.5-0.3,0.7-0.1l0,0c0.3,0.2,2.4,2.1-2.1,9.1C99,420.3,98.8,420.4,98.7,420.4z"/>
	<path class="st1" d="M90.8,428.8c-0.1,0-0.3-0.1-0.4-0.1c-0.2-0.2-0.2-0.5,0-0.7l0,0c3.7-3.5,6.1-8.2,6.7-13.3
		c0-0.3,0.2-0.5,0.5-0.5s0.5,0.2,0.5,0.5s-0.4,7.4-7,14C91.1,428.8,91,428.8,90.8,428.8z"/>
</g>
<g>
	<g>
		<path class="st1" d="M168.8,123.3h-18.7c-0.9,0-1.7-0.8-1.7-1.8c0-1,0.8-1.8,1.7-1.8h18.7c0.9,0,1.7,0.8,1.7,1.8
			C170.5,122.4,169.7,123.3,168.8,123.3z"/>
		<path class="st1" d="M192.4,123.3h-18.7c-0.9,0-1.7-0.8-1.7-1.8c0-1,0.8-1.8,1.7-1.8h18.7c0.9,0,1.7,0.8,1.7,1.8
			C194.1,122.4,193.3,123.3,192.4,123.3z"/>
		<path class="st1" d="M303.4,123.3h-18.7c-0.9,0-1.7-0.8-1.7-1.8c0-1,0.8-1.8,1.7-1.8h18.7c0.9,0,1.7,0.8,1.7,1.8
			C305.1,122.4,304.4,123.3,303.4,123.3L303.4,123.3z"/>
		<path class="st2" d="M278.7,123.3H260c-0.9,0-1.7-0.8-1.7-1.8c0-1,0.8-1.8,1.7-1.8h18.7c0.9,0,1.7,0.8,1.7,1.8
			C280.4,122.4,279.6,123.3,278.7,123.3z"/>
		<path class="st1" d="M252,123.3h-54.5c-0.9,0-1.7-0.8-1.7-1.8c0-1,0.8-1.8,1.7-1.8H252c0.9,0,1.7,0.8,1.7,1.8
			C253.7,122.4,253,123.3,252,123.3L252,123.3L252,123.3z"/>
		<rect x="137.2" y="118" class="st1" width="6" height="6.3"/>
	</g>
	<g>
		<path class="st2" d="M220.2,135.4h-70.2c-0.9,0-1.7-0.8-1.7-1.8c0-1,0.8-1.8,1.7-1.8h70.2c0.9,0,1.7,0.8,1.7,1.8
			C221.9,134.6,221.1,135.4,220.2,135.4z"/>
		<path class="st2" d="M322.4,135.4h-63.8c-0.9,0-1.7-0.8-1.7-1.8c0-1,0.8-1.8,1.7-1.8h63.9c0.9,0,1.7,0.8,1.7,1.8
			C324.2,134.6,323.4,135.4,322.4,135.4L322.4,135.4z"/>
		<path class="st1" d="M252.5,135.4h-27.8c-0.9,0-1.7-0.8-1.7-1.8c0-1,0.8-1.8,1.7-1.8h27.8c0.9,0,1.7,0.8,1.7,1.8
			C254.2,134.6,253.4,135.4,252.5,135.4L252.5,135.4z"/>
		<rect x="137.2" y="130.1" class="st1" width="6" height="6.3"/>
	</g>
	<g>
		<path class="st1" d="M190.4,147.4h-40.4c-0.9,0-1.7-0.8-1.7-1.8s0.8-1.8,1.7-1.8h40.4c0.9,0,1.7,0.8,1.7,1.8
			S191.3,147.4,190.4,147.4z"/>
		<path class="st1" d="M235.8,147.4h-40.4c-0.9,0-1.7-0.8-1.7-1.8s0.8-1.8,1.7-1.8h40.4c0.9,0,1.7,0.8,1.7,1.8
			S236.7,147.4,235.8,147.4z"/>
		<path class="st1" d="M281.2,147.4h-40.3c-0.9,0-1.7-0.8-1.7-1.8s0.8-1.8,1.7-1.8h40.3c0.9,0,1.7,0.8,1.7,1.8
			S282.2,147.4,281.2,147.4z"/>
		<path class="st1" d="M303.4,147.4h-17.1c-0.9,0-1.7-0.8-1.7-1.8s0.8-1.8,1.7-1.8h17.1c0.9,0,1.7,0.8,1.7,1.8
			S304.4,147.4,303.4,147.4z"/>
		<rect x="137.2" y="142.2" class="st1" width="6" height="6.3"/>
	</g>
	<g>
		<path class="st1" d="M273.8,160h-18.7c-0.9,0-1.7-0.8-1.7-1.8s0.8-1.8,1.7-1.8h18.7c0.9,0,1.7,0.8,1.7,1.8S274.7,160,273.8,160z"
			/>
		<path class="st1" d="M248.9,160h-18.7c-0.9,0-1.7-0.8-1.7-1.8s0.8-1.8,1.7-1.8h18.7c0.9,0,1.7,0.8,1.7,1.8S249.9,160,248.9,160z"
			/>
		<path class="st1" d="M222.2,160h-54.5c-0.9,0-1.7-0.8-1.7-1.8s0.8-1.8,1.7-1.8h54.5c0.9,0,1.7,0.8,1.7,1.8S223.1,160,222.2,160z"
			/>
		<rect x="137.2" y="154.3" class="st1" width="6" height="6.3"/>
	</g>
	<g>
		<path class="st1" d="M186.3,170.9h-18.7c-0.9,0-1.7-0.8-1.7-1.8s0.8-1.8,1.7-1.8h18.7c0.9,0,1.7,0.8,1.7,1.8
			S187.3,170.9,186.3,170.9z"/>
		<path class="st1" d="M211.1,170.9h-18.7c-0.9,0-1.7-0.8-1.7-1.8s0.8-1.8,1.7-1.8h18.7c0.9,0,1.7,0.8,1.7,1.8
			S212,170.9,211.1,170.9z"/>
		<path class="st2" d="M273.8,170.9h-54.5c-0.9,0-1.7-0.8-1.7-1.8s0.8-1.8,1.7-1.8h54.5c0.9,0,1.7,0.8,1.7,1.8
			S274.7,170.9,273.8,170.9z"/>
		<rect x="137.2" y="166.5" class="st1" width="6" height="6.3"/>
	</g>
	<g>
		<path class="st1" d="M273.8,182.2h-18.7c-0.9,0-1.7-0.8-1.7-1.8c0-1,0.8-1.8,1.7-1.8h18.7c0.9,0,1.7,0.8,1.7,1.8
			C275.5,181.4,274.7,182.2,273.8,182.2z"/>
		<path class="st1" d="M248.9,182.2h-18.7c-0.9,0-1.7-0.8-1.7-1.8c0-1,0.8-1.8,1.7-1.8h18.7c0.9,0,1.7,0.8,1.7,1.8
			C250.6,181.4,249.9,182.2,248.9,182.2z"/>
		<path class="st2" d="M222.2,182.2h-54.5c-0.9,0-1.7-0.8-1.7-1.8c0-1,0.8-1.8,1.7-1.8h54.5c0.9,0,1.7,0.8,1.7,1.8
			C223.9,181.4,223.1,182.2,222.2,182.2z"/>
		<rect x="137.2" y="178.9" class="st1" width="6" height="6.3"/>
	</g>
	<g>
		<path class="st1" d="M168.8,197h-18.7c-0.9,0-1.7-0.8-1.7-1.8c0-1,0.8-1.8,1.7-1.8h18.7c0.9,0,1.7,0.8,1.7,1.8
			C170.5,196.1,169.7,197,168.8,197z"/>
		<path class="st1" d="M192.4,197h-18.7c-0.9,0-1.7-0.8-1.7-1.8c0-1,0.8-1.8,1.7-1.8h18.7c0.9,0,1.7,0.8,1.7,1.8
			C194.1,196.1,193.3,197,192.4,197z"/>
		<path class="st1" d="M303.4,197h-18.7c-0.9,0-1.7-0.8-1.7-1.8c0-1,0.8-1.8,1.7-1.8h18.7c0.9,0,1.7,0.8,1.7,1.8
			C305.1,196.1,304.4,197,303.4,197L303.4,197z"/>
		<path class="st2" d="M278.7,197H260c-0.9,0-1.7-0.8-1.7-1.8c0-1,0.8-1.8,1.7-1.8h18.7c0.9,0,1.7,0.8,1.7,1.8
			C280.4,196.1,279.6,197,278.7,197z"/>
		<path class="st1" d="M252,197h-54.5c-0.9,0-1.7-0.8-1.7-1.8c0-1,0.8-1.8,1.7-1.8H252c0.9,0,1.7,0.8,1.7,1.8
			C253.7,196.1,253,197,252,197L252,197L252,197z"/>
		<rect x="137.2" y="191.1" class="st1" width="6" height="6.3"/>
	</g>
	<g>
		<path class="st2" d="M220.2,209h-70.2c-0.9,0-1.7-0.8-1.7-1.8s0.8-1.8,1.7-1.8h70.2c0.9,0,1.7,0.8,1.7,1.8S221.1,209,220.2,209z"
			/>
		<path class="st1" d="M328.7,209h-70.1c-0.9,0-1.7-0.8-1.7-1.8s0.8-1.8,1.7-1.8h70.2c0.9,0,1.7,0.8,1.7,1.8S329.7,209,328.7,209
			L328.7,209z"/>
		<path class="st1" d="M252.5,209h-27.8c-0.9,0-1.7-0.8-1.7-1.8s0.8-1.8,1.7-1.8h27.8c0.9,0,1.7,0.8,1.7,1.8S253.4,209,252.5,209
			L252.5,209z"/>
		<rect x="137.2" y="203.2" class="st1" width="6" height="6.3"/>
	</g>
	<g>
		<path class="st1" d="M190.4,221.1h-40.4c-0.9,0-1.7-0.8-1.7-1.8c0-1,0.8-1.8,1.7-1.8h40.4c0.9,0,1.7,0.8,1.7,1.8
			C192.1,220.3,191.3,221.1,190.4,221.1z"/>
		<path class="st1" d="M235.8,221.1h-40.4c-0.9,0-1.7-0.8-1.7-1.8c0-1,0.8-1.8,1.7-1.8h40.4c0.9,0,1.7,0.8,1.7,1.8
			C237.5,220.3,236.7,221.1,235.8,221.1z"/>
		<path class="st2" d="M281.2,221.1h-40.3c-0.9,0-1.7-0.8-1.7-1.8c0-1,0.8-1.8,1.7-1.8h40.3c0.9,0,1.7,0.8,1.7,1.8
			C282.9,220.3,282.2,221.1,281.2,221.1z"/>
		<path class="st1" d="M303.4,221.1h-17.1c-0.9,0-1.7-0.8-1.7-1.8c0-1,0.8-1.8,1.7-1.8h17.1c0.9,0,1.7,0.8,1.7,1.8
			C305.1,220.3,304.4,221.1,303.4,221.1z"/>
		<rect x="137.2" y="215.3" class="st1" width="6" height="6.3"/>
	</g>
	<g>
		<path class="st1" d="M273.8,232.4h-18.7c-0.9,0-1.7-0.8-1.7-1.8c0-1,0.8-1.8,1.7-1.8h18.7c0.9,0,1.7,0.8,1.7,1.8
			C275.5,231.5,274.7,232.4,273.8,232.4z"/>
		<path class="st1" d="M248.9,232.4h-18.7c-0.9,0-1.7-0.8-1.7-1.8c0-1,0.8-1.8,1.7-1.8h18.7c0.9,0,1.7,0.8,1.7,1.8
			C250.6,231.5,249.9,232.4,248.9,232.4z"/>
		<path class="st1" d="M222.2,232.4h-54.5c-0.9,0-1.7-0.8-1.7-1.8c0-1,0.8-1.8,1.7-1.8h54.5c0.9,0,1.7,0.8,1.7,1.8
			C223.9,231.5,223.1,232.4,222.2,232.4z"/>
		<rect x="137.2" y="227.4" class="st1" width="6" height="6.3"/>
	</g>
	<g>
		<path class="st1" d="M186.3,244.5h-18.7c-0.9,0-1.7-0.8-1.7-1.8s0.8-1.8,1.7-1.8h18.7c0.9,0,1.7,0.8,1.7,1.8
			S187.3,244.5,186.3,244.5z"/>
		<path class="st1" d="M211.1,244.5h-18.7c-0.9,0-1.7-0.8-1.7-1.8s0.8-1.8,1.7-1.8h18.7c0.9,0,1.7,0.8,1.7,1.8
			S212,244.5,211.1,244.5z"/>
		<path class="st2" d="M273.8,244.5h-54.5c-0.9,0-1.7-0.8-1.7-1.8s0.8-1.8,1.7-1.8h54.5c0.9,0,1.7,0.8,1.7,1.8
			S274.7,244.5,273.8,244.5z"/>
		<rect x="137.2" y="239.6" class="st1" width="6" height="6.3"/>
	</g>
	<g>
		<path class="st1" d="M273.8,257.1h-18.7c-0.9,0-1.7-0.8-1.7-1.8c0-1,0.8-1.8,1.7-1.8h18.7c0.9,0,1.7,0.8,1.7,1.8
			C275.5,256.3,274.7,257.1,273.8,257.1z"/>
		<path class="st1" d="M248.9,257.1h-18.7c-0.9,0-1.7-0.8-1.7-1.8c0-1,0.8-1.8,1.7-1.8h18.7c0.9,0,1.7,0.8,1.7,1.8
			C250.6,256.3,249.9,257.1,248.9,257.1z"/>
		<path class="st2" d="M222.2,257.1h-54.5c-0.9,0-1.7-0.8-1.7-1.8c0-1,0.8-1.8,1.7-1.8h54.5c0.9,0,1.7,0.8,1.7,1.8
			C223.9,256.3,223.1,257.1,222.2,257.1z"/>
		<rect x="137.2" y="251.7" class="st1" width="6" height="6.3"/>
	</g>
	<g>
		<path class="st1" d="M186.3,269.7h-18.7c-0.9,0-1.7-0.8-1.7-1.8s0.8-1.8,1.7-1.8h18.7c0.9,0,1.7,0.8,1.7,1.8
			S187.3,269.7,186.3,269.7z"/>
		<path class="st1" d="M211.1,269.7h-18.7c-0.9,0-1.7-0.8-1.7-1.8s0.8-1.8,1.7-1.8h18.7c0.9,0,1.7,0.8,1.7,1.8
			S212,269.7,211.1,269.7z"/>
		<path class="st2" d="M273.8,269.7h-54.5c-0.9,0-1.7-0.8-1.7-1.8s0.8-1.8,1.7-1.8h54.5c0.9,0,1.7,0.8,1.7,1.8
			S274.7,269.7,273.8,269.7z"/>
		<rect x="137.2" y="263.8" class="st1" width="6" height="6.3"/>
	</g>
</g>
</svg>
